<svg xmlns="http://www.w3.org/2000/svg" viewBox="0 0 295.85 244.98"><defs><style>.cls-1{fill:#f8e92a;}.cls-2,.cls-4,.cls-5,.cls-6{fill:none;}.cls-2,.cls-4,.cls-5,.cls-6,.cls-8{stroke:#1d1d1b;stroke-miterlimit:10;}.cls-2{stroke-width:0.32px;}.cls-3{fill:#502d07;}.cls-4{stroke-width:1.75px;}.cls-5{stroke-width:1.75px;}.cls-6{stroke-width:1.3px;}.cls-7{fill:#686867;}.cls-8{fill:#878787;stroke-width:2.98px;}.cls-9{fill:#a6a6a5;}</style></defs><title>Middel 1</title><g id="Laag_2" data-name="Laag 2"><g id="Laag_1-2" data-name="Laag 1"><polygon class="cls-1" points="240.69 94.88 21.03 0 21.03 244.98 240.69 150.1 240.69 94.88"/><line class="cls-2" x1="49.44" y1="88.34" x2="182.88" y2="136.43"/><line class="cls-2" x1="69.34" y1="58.75" x2="165.54" y2="162.99"/><line class="cls-2" x1="124.6" y1="41.9" x2="111.59" y2="183.14"/><line class="cls-2" x1="172.36" y1="67.93" x2="63.72" y2="159.13"/><line class="cls-2" x1="187.36" y1="107.46" x2="46.03" y2="119.59"/><line class="cls-2" x1="153.61" y1="52.13" x2="82.97" y2="175.13"/><line class="cls-2" x1="93.26" y1="46.9" x2="141.96" y2="180.12"/><line class="cls-2" x1="183.53" y1="88.19" x2="52.41" y2="142.29"/><path class="cls-3" d="M105.51,33.9c-.89.23-1.79.42-2.69.57-.25,0-.5.09-.75.11h-.14c-.45,0-.91.09-1.37.12a32,32,0,0,1-5.62-.15V41A105.71,105.71,0,0,1,108,41a3.23,3.23,0,0,0,3.21-3.21,3.29,3.29,0,0,0-3.21-3.2,105.71,105.71,0,0,0-13.08,0A3.2,3.2,0,0,0,92.67,40a3.73,3.73,0,0,0,2.27.94,34,34,0,0,0,12.27-.89,3.23,3.23,0,0,0,2.24-3.94,3.27,3.27,0,0,0-3.94-2.24Z"/><path class="cls-3" d="M90,37.62a24.3,24.3,0,0,1-9.4,4.77l1.71,6.18c3.88-1.44,7.76-2.9,11.66-4.32a18.06,18.06,0,0,1,4.93-1.17,10.41,10.41,0,0,0,5.5-1.63,3.21,3.21,0,0,0-2.47-5.86c-8.57,1.94-17.7,3.28-25.5,7.56-6.91,3.78-12.47,9.56-17,15.94a3.23,3.23,0,0,0,.5,3.88,3.3,3.3,0,0,0,3.88.5A83.38,83.38,0,0,0,83.4,49.31c3-2.87-1.56-7.4-4.53-4.53A78.09,78.09,0,0,1,60.58,57.94L65,62.32A44.46,44.46,0,0,1,80,48.49,45.89,45.89,0,0,1,90.76,44.7c4.26-1,8.57-2,12.86-2.93l-2.47-5.85c-1.06.8-2.06.7-3.62.86a23.92,23.92,0,0,0-5.71,1.44L80.58,42.39a3.3,3.3,0,0,0-2.24,3.94,3.26,3.26,0,0,0,4,2.24,31.52,31.52,0,0,0,12.22-6.42,3.23,3.23,0,0,0,0-4.53,3.28,3.28,0,0,0-4.53,0Z"/><path class="cls-3" d="M59.18,65.94a12.23,12.23,0,0,0,1.9-2.87,15.1,15.1,0,0,0,.75-1.93c.14-.47.25-.94.43-1.39l-.32.76a4,4,0,0,1,.45-.77l-.5.65a3.64,3.64,0,0,1,.62-.62l-.65.5.13-.09-.76.32H59.64l-.76-.33.34.19a3.33,3.33,0,0,0,2.47.32,3.29,3.29,0,0,0,1.92-1.47,3.24,3.24,0,0,0,.32-2.47,3.29,3.29,0,0,0-1.47-1.92,4.21,4.21,0,0,0-2-.63A3.84,3.84,0,0,0,57.9,55.3a5.86,5.86,0,0,0-1.32,1.61,32.61,32.61,0,0,0-1.29,3.54l.32-.76a10,10,0,0,1-1.19,2l.5-.65-.27.33a3.44,3.44,0,0,0-.94,2.27,3.25,3.25,0,0,0,.94,2.26,3.22,3.22,0,0,0,2.27.94,3.1,3.1,0,0,0,2.26-.94Z"/><path class="cls-3" d="M54.9,58.06a19.88,19.88,0,0,1-1.61,2.61l.5-.64a13.4,13.4,0,0,1-1.66,1.71A15.73,15.73,0,0,0,50.08,64a3.23,3.23,0,0,0-.32,2.47A3.2,3.2,0,0,0,53.7,68.7l.77-.32a3.25,3.25,0,0,0,1.15-1.15l.06-.08-.5.65c.77-1,1.79-1.72,2.63-2.64a19.49,19.49,0,0,0,2.63-3.86,3.38,3.38,0,0,0,.32-2.47,3.33,3.33,0,0,0-1.47-1.92,3.22,3.22,0,0,0-4.39,1.15Z"/><path class="cls-3" d="M56.78,61.3a11.59,11.59,0,0,1-.46,1.24l.33-.76a14.53,14.53,0,0,1-1.85,3.16l.5-.65,0,.06,5.35,3.12a.53.53,0,0,1,0-.12l-.32.77,0-.06a2.42,2.42,0,0,0,.38-1.19,2.33,2.33,0,0,0-.06-1.28,3.51,3.51,0,0,0-1.47-1.91,3.23,3.23,0,0,0-2.47-.33l-.76.33a3,3,0,0,0-1.15,1.15,3.5,3.5,0,0,0-.38.94l-.11.85a2.36,2.36,0,0,0,.27,1.23,1.66,1.66,0,0,0,.42.71,2.4,2.4,0,0,0,.9.83,3.75,3.75,0,0,0,1.61.43,3.47,3.47,0,0,0,2.27-.94,18.43,18.43,0,0,0,1.87-2.77A19.65,19.65,0,0,0,63,63,2.33,2.33,0,0,0,63,61.72a3.29,3.29,0,0,0-2.3-2.66,3.2,3.2,0,0,0-2.46.32,3.43,3.43,0,0,0-1.48,1.92Z"/><path class="cls-3" d="M62,58.82a16.86,16.86,0,0,0-3,2.44l-2.59,2.59a15.84,15.84,0,0,0-2.48,3,28.8,28.8,0,0,0-1.73,3.79l.32-.77-.06.11.5-.65-.07.08.65-.5-.08.06.76-.32-.1,0a3.22,3.22,0,0,0-1.92,1.47A3.28,3.28,0,0,0,52,72.61a3.24,3.24,0,0,0,1.47,1.91,3.65,3.65,0,0,0,2.47.33,3.31,3.31,0,0,0,1.93-1.32,7.55,7.55,0,0,0,.82-1.66l-.33.77A16.72,16.72,0,0,1,60,69.34l-.5.65a33.79,33.79,0,0,1,2.8-2.94,34.84,34.84,0,0,1,2.86-2.71l-.65.5c.23-.17.46-.33.7-.48A3.21,3.21,0,0,0,62,58.82Z"/><path class="cls-3" d="M51.85,68l-.1.13.5-.64a6.9,6.9,0,0,1-1.11,1l.64-.51L50.3,69.17a2.91,2.91,0,0,0-.37.33c-.19.22-.37.47-.55.71l-.07.1-.06.12a6,6,0,0,0-.36.86h6.18v-.06l.11.85a4.56,4.56,0,0,1,0-.64A6.24,6.24,0,0,0,55,70a3.85,3.85,0,0,0-.54-1.29,3.86,3.86,0,0,1-.32-.56l.32.77a2.91,2.91,0,0,1-.15-.58l.12.86s0-.08,0-.12a3.52,3.52,0,0,0-.93-2.27,2.5,2.5,0,0,0-1-.66,2.47,2.47,0,0,0-1.23-.28l-.85.12a3.13,3.13,0,0,0-1.42.82l-.5.65A3.28,3.28,0,0,0,48,69.09a7.67,7.67,0,0,0,.19,1.26,7,7,0,0,0,.44,1.1c.12.27.31.49.43.76l-.32-.77a2,2,0,0,1,.09.33l-.12-.85a3.41,3.41,0,0,1,0,.64A7,7,0,0,0,48.89,73l.32.77a2.47,2.47,0,0,0,.83.9,1.71,1.71,0,0,0,.7.41,2.4,2.4,0,0,0,1.24.27l.85-.11.76-.32a2.4,2.4,0,0,0,.9-.83A2.36,2.36,0,0,0,55.07,73l0-.09-.32.76a.77.77,0,0,1,.14-.21l-.5.64a4.36,4.36,0,0,1,.68-.6l-.65.51c.54-.42,1.09-.82,1.6-1.25a8,8,0,0,0,1.33-1.52A2.36,2.36,0,0,0,57.76,70a2.32,2.32,0,0,0-.06-1.28,2.44,2.44,0,0,0-.57-1.09,2.47,2.47,0,0,0-.9-.83,3.23,3.23,0,0,0-2.47-.32l-.76.32A3.17,3.17,0,0,0,51.85,68Z"/><path class="cls-3" d="M51.52,75.72a9.31,9.31,0,0,0,.17-2,7.24,7.24,0,0,1,0-1.14l-.12.86a2.91,2.91,0,0,1,.17-.66l-.32.77a.93.93,0,0,1,0-.1,2.42,2.42,0,0,0,.38-1.19A2.53,2.53,0,0,0,51.82,71a2.41,2.41,0,0,0-.58-1.09,2.34,2.34,0,0,0-.89-.82l-.77-.33a3.27,3.27,0,0,0-1.7,0l-.77.33A3.25,3.25,0,0,0,46,70.25a5.3,5.3,0,0,0-.52,1.41,9.43,9.43,0,0,0-.17,1.51,11.16,11.16,0,0,1,0,1.53l.12-.85,0,.17a2.53,2.53,0,0,0-.06,1.28A3.29,3.29,0,0,0,47.58,78l.85.12a3.28,3.28,0,0,0,1.62-.44l.65-.5a3.22,3.22,0,0,0,.82-1.42Z"/><path class="cls-3" d="M52.3,71.9a8.81,8.81,0,0,1-1.09,1l.65-.51a9.47,9.47,0,0,1-1.16.74l4.7,3.62,0-.09-.32.77.05-.08-.5.65.07-.06-.65.5.08,0-4.38-4.38a2.83,2.83,0,0,1-.2.28l.5-.65a2.06,2.06,0,0,1-.33.33l.65-.5A4.3,4.3,0,0,0,49,74.87,9.48,9.48,0,0,0,48.54,76l.32-.77a8.39,8.39,0,0,0-.8,2.14,7.48,7.48,0,0,1-.34,1.56l.32-.76A13.23,13.23,0,0,1,46.82,80a3.27,3.27,0,0,0-.32,2.47A3.33,3.33,0,0,0,48,84.43a3.24,3.24,0,0,0,2.47.32,3.65,3.65,0,0,0,1.92-1.47A11.7,11.7,0,0,0,54,80.47c.26-.75.22-1.57.53-2.31l-.33.77c.24-.5.46-1,.66-1.51l-.32.77,0-.08-.5.65.16-.16-.65.51a6.15,6.15,0,0,0,1.76-1.83,3.25,3.25,0,0,0-.5-3.88,3.31,3.31,0,0,0-3.88-.5,2.93,2.93,0,0,0-1,.92,4.53,4.53,0,0,0-.67,1.25l-.11.85.11.86a3.26,3.26,0,0,0,4.71,1.91,10.1,10.1,0,0,0,2.9-2.26,3.35,3.35,0,0,0,.94-2.26A3.21,3.21,0,0,0,54.56,71a3.22,3.22,0,0,0-2.26.94Z"/><path class="cls-3" d="M46.78,75.75a11,11,0,0,1-1.2,1.94l.5-.65a20,20,0,0,0-2,2.47l6,1.61L50,80A3.37,3.37,0,0,0,49,77.75a2.47,2.47,0,0,0-1-.66,2.54,2.54,0,0,0-1.24-.28A3.21,3.21,0,0,0,43.56,80l0,1.1.12.86a2.39,2.39,0,0,0,.57,1.09,1.56,1.56,0,0,0,.57.57,2.49,2.49,0,0,0,1.09.57,3.8,3.8,0,0,0,1.71,0,2.49,2.49,0,0,0,1.09-.57,2.45,2.45,0,0,0,.82-.9c0-.09.11-.18.17-.27l-.5.65c.23-.29.5-.53.75-.8a17.93,17.93,0,0,0,1.17-1.44A11.89,11.89,0,0,0,52.32,79a2.46,2.46,0,0,0,.38-1.19,2.53,2.53,0,0,0-.06-1.28,2.44,2.44,0,0,0-.57-1.09,2.56,2.56,0,0,0-.9-.83,3.22,3.22,0,0,0-4.39,1.15Z"/><path class="cls-3" d="M44.66,74.86a11.69,11.69,0,0,0-1.07,1L48.94,79a3.76,3.76,0,0,1,.28-.92l-.32.77c.1-.24.21-.48.32-.72A2.42,2.42,0,0,0,49.6,77a2.54,2.54,0,0,0-.06-1.28A2.49,2.49,0,0,0,49,74.59a2.45,2.45,0,0,0-.9-.82l-.77-.32a3.07,3.07,0,0,0-1.7,0l-.77.32a3.25,3.25,0,0,0-1.15,1.15c-.23.51-.46,1-.67,1.55a4.06,4.06,0,0,0-.25.84l-.11.86a2.36,2.36,0,0,0,.27,1.23,1.66,1.66,0,0,0,.42.71,2.3,2.3,0,0,0,.9.82l.76.33.85.11a3.6,3.6,0,0,0,2.27-.94,13.13,13.13,0,0,1,1.07-1,2.4,2.4,0,0,0,.66-1,2.47,2.47,0,0,0,.28-1.23,2.51,2.51,0,0,0-.28-1.24,2.47,2.47,0,0,0-.66-1l-.65-.5a3.18,3.18,0,0,0-1.62-.44l-.85.12a3.15,3.15,0,0,0-1.41.82Z"/><path class="cls-3" d="M41,80.65a15.19,15.19,0,0,1,0,1.91c0,.24,0,.16,0-.23l-.09.5c-.07.33-.16.66-.26,1a3.24,3.24,0,0,0,2.24,3.94,3.3,3.3,0,0,0,4-2.24c0-.1.24-.72.07-.25s.11-.18.14-.23l-5.86-2.47a5.65,5.65,0,0,0-.33,3,3.4,3.4,0,0,0,3.23,2.5,6.18,6.18,0,0,0,2.32-.54q-3.16-.67-1.11.07a2.88,2.88,0,0,0,1,.11,2.94,2.94,0,0,0,1.1-.2c-.49,0-.57,0-.26,0l-1.62-.44.15.08-1.15-1.15.1.14-.43-1.62,0,.17.43-1.62-.07.14a3.23,3.23,0,0,0,.82,4.14,3.27,3.27,0,0,0,4.21-.25c-.67.54-.15.14,0,0l-4.71-1.91-.1-.35a3.13,3.13,0,0,0,1.59,2.76,3.17,3.17,0,0,0,3.23,0,4.28,4.28,0,0,0,1.58-1.61l-5.54-3.23L44.5,85.58a16.53,16.53,0,0,0-1.24,3.24c-.08.38-.12.77-.19,1.15-.14.73.27-.5-.06.16-.2.4-.38.81-.54,1.22A12.4,12.4,0,0,0,41.83,94H48l-.09-.22a3.53,3.53,0,0,0-1.47-1.92A3.28,3.28,0,0,0,44,91.58c-1.5.48-2.91,2.28-2.24,3.94l.09.23a3.33,3.33,0,0,0,3.09,2.35c1.29-.06,2.88-.94,3.09-2.35.06-.42.12-.84.21-1.25.05-.25.11-.49.18-.74,0-.09.28-.74.1-.32s.11-.22.15-.3c.17-.36.33-.74.47-1.11a6.13,6.13,0,0,0,.28-1.27,7.47,7.47,0,0,1,.34-1.23c.19-.59-.13.27,0-.09l.27-.62c.39-.91.79-1.82,1.19-2.73.67-1.53.5-3.51-1.15-4.38a3.25,3.25,0,0,0-4.39,1.15l.73-.69,4.82,2.77a4.4,4.4,0,0,0-.13-1.35c-.4-2.1-3-2.85-4.71-1.92a8.24,8.24,0,0,0-1.32,1l5,3.88a3.56,3.56,0,0,0-.87-4.59,3.71,3.71,0,0,0-2.17-.78,5.38,5.38,0,0,0-.69.07c-.12,0-1.32.16-.23.11l1.62.44a3.84,3.84,0,0,0-3-.42c-.52.13-1,.36-1.55.44l2.46.32L45.58,82,47.06,84l0-.09v1.71c.08-.44.22-.88.33-1.31a3.21,3.21,0,0,0-5.86-2.47,14.42,14.42,0,0,0-.86,2l6.19,1.7a14.58,14.58,0,0,0,.56-4.87,3.21,3.21,0,0,0-6.41,0Z"/><path class="cls-3" d="M40.2,87.32a4.94,4.94,0,0,1-.5.83l.5-.65-.18.21,5.35,3.12.33-1a3.24,3.24,0,0,0-1.47-3.62,3.36,3.36,0,0,0-3.89.5l-.41.37,5,3.89c.3-.68.6-1.36.83-2.06a4.84,4.84,0,0,0,.24-1.4A9.93,9.93,0,0,0,45.86,86l.11.85a9.26,9.26,0,0,1-.12-2.23l-.12.86a2.46,2.46,0,0,1,.07-.29l-6.29-.85c0,.47,0,1-.11,1.42l.11-.85a14.65,14.65,0,0,1-1,3.68l.32-.76c-.37.86-.81,1.69-1.15,2.58a6.89,6.89,0,0,0-.24,3.49,3.2,3.2,0,0,0,1.47,1.91,3.33,3.33,0,0,0,2.47.33,3.28,3.28,0,0,0,1.92-1.48l.32-.76a3.31,3.31,0,0,0,0-1.71l0-.14.12.86a3.42,3.42,0,0,1,0-.64l-.12.85A5.24,5.24,0,0,1,44,91.91l-.32.77a31.09,31.09,0,0,0,1.64-4,17.9,17.9,0,0,0,.65-4.3,3.21,3.21,0,0,0-6.3-.86,11.18,11.18,0,0,0,.12,4.64l-.12-.85a1,1,0,0,1,0,.25l.12-.85a8.52,8.52,0,0,1-.51,1.47l.32-.76-.12.28a3.44,3.44,0,0,0-.33,2.47,3.37,3.37,0,0,0,1.15,1.67,3.25,3.25,0,0,0,4.21-.25l.42-.37-5.36-3.12-.33,1a3.21,3.21,0,0,0,5.36,3.12,7.27,7.27,0,0,0,1.18-1.68,3.44,3.44,0,0,0,.33-2.47,3.28,3.28,0,0,0-1.48-1.92,3.23,3.23,0,0,0-2.47-.32,3.14,3.14,0,0,0-1.91,1.47Z"/><path class="cls-3" d="M41.44,95.5a11.44,11.44,0,0,1-.63,1.9,10.29,10.29,0,0,0-.4,2.76c0,1.49-.14,3-.29,4.47a3.24,3.24,0,0,0,.94,2.27,3.32,3.32,0,0,0,2.27.94,3.24,3.24,0,0,0,2.26-.94,3.65,3.65,0,0,0,.94-2.27c.09-.92.17-1.84.22-2.76s0-1.83.15-2.74l-.12.86c.15-1,.68-1.82.84-2.79a3.48,3.48,0,0,0-.32-2.47,3.22,3.22,0,0,0-4.39-1.15,3.15,3.15,0,0,0-1.47,1.92Z"/><path class="cls-3" d="M37.35,96.71c-.07.61-.15,1.22-.23,1.83l.11-.85a19,19,0,0,1-1,4.79l.32-.76,0,.11a2.39,2.39,0,0,0-.38,1.19,2.54,2.54,0,0,0,.06,1.28,3.28,3.28,0,0,0,1.47,1.91,3.24,3.24,0,0,0,2.47.32,3,3,0,0,0,1.92-1.47,13.21,13.21,0,0,0,.8-2.26c.13-.57.22-1.14.31-1.71.22-1.46.41-2.92.59-4.38a3.13,3.13,0,0,0-.94-2.26,3.2,3.2,0,0,0-4.53,0l-.5.64a3.28,3.28,0,0,0-.44,1.62Z"/><path class="cls-3" d="M35.57,95.15c-.1,2.58-.21,5.16-.56,7.71l.12-.85a17.15,17.15,0,0,0-.35,3,3.21,3.21,0,1,0,6.41,0,6.33,6.33,0,0,1,0-.87l-.11.85c.24-1.73.49-3.46.62-5.21.11-1.55.18-3.09.24-4.64a3.22,3.22,0,0,0-3.2-3.2,3.27,3.27,0,0,0-3.21,3.2Z"/><path class="cls-3" d="M37.43,106.51l-.73,16.7a3.21,3.21,0,0,0,6,1.62l.13-.26a3.2,3.2,0,0,0-5.53-3.24l-.13.26,6,1.62.73-16.7a3.21,3.21,0,0,0-6.41,0Z"/><path class="cls-3" d="M41.06,123.47c.07-2.72.15-5.45.33-8.16,0-.6.12-1.21.13-1.81a4.34,4.34,0,0,0-.17-1.53c-.21-.56,0,.66,0-.07a20.26,20.26,0,0,0-.45-4.39,3.22,3.22,0,0,0-3.09-2.35,3.31,3.31,0,0,0-3.09,2.35,9,9,0,0,0-.16,4.07,6.2,6.2,0,0,0,.31,1.27c.15.37,0-.55,0,0a2,2,0,0,1,1-1.64,3.27,3.27,0,0,0-1.15,4.38c.88,1.36,2.92,2.18,4.39,1.15a4.73,4.73,0,0,0,2.09-4.76c-.09-.66-.3-1.28-.42-1.93.13.71,0-.09,0-.26,0-.38,0-.38,0,0a5.29,5.29,0,0,1,.13-.54H34.7a6.43,6.43,0,0,0,.13.67c-.06-.42.05.58.05.67,0,.53,0,1.06,0,1.59,0,.16.3,1.49.24,1.52l-.06-.41a3.85,3.85,0,0,1,0,.48c0,.62-.1,1.24-.14,1.86-.16,2.62-.24,5.24-.31,7.87a3.23,3.23,0,0,0,3.2,3.2,3.27,3.27,0,0,0,3.21-3.2Z"/><path class="cls-3" d="M40.79,106.62a45.08,45.08,0,0,0-.56,8.12c0,2.63,0,5.25.1,7.87a3.21,3.21,0,1,0,6.41,0c-.11-2.52-.12-5-.1-7.57,0-1.24,0-2.47,0-3.71,0-.59,0-1.19.09-1.78,0-.31.06-.76,0-.19a9.26,9.26,0,0,1,.18-1,3.27,3.27,0,0,0-2.24-3.94,3.23,3.23,0,0,0-3.94,2.23Z"/><path class="cls-3" d="M38.79,127.5a21.36,21.36,0,0,0,.63,4.71,17.51,17.51,0,0,0,.6,1.86,10,10,0,0,0,1.55,2.8,3,3,0,0,0,1.41.83,3.2,3.2,0,0,0,2.09-.17,3.26,3.26,0,0,0,2-2.92c.1-1.47-.21-2.91-.07-4.38,0-.44,0,.06,0,.21a6.37,6.37,0,0,0,.1-.63c.07-.43.13-.85.18-1.28a9.34,9.34,0,0,0,.09-2.53,4.15,4.15,0,0,0-.43-1.62,3.23,3.23,0,0,0-1.54-1.31,3.26,3.26,0,0,0-3.5.66,2.35,2.35,0,0,0-.29.26c.45-.52.34-.26.1-.1a7.17,7.17,0,0,1-.75.46l-.35.18c-.4.21.12-.1.23-.09-.12,0-.34.13-.45.17s-.66.12.16,0l1.62.43c1,1.14,1.18,1.22.4.26a2.05,2.05,0,0,0-.73-.6,3.77,3.77,0,0,0-1-.46,5.57,5.57,0,0,0-1.14-.15h-.3a2.52,2.52,0,0,1,1.61.71l.82,1.41-.05-.13a3.5,3.5,0,0,0-1.47-1.91,3.21,3.21,0,0,0-4.71,3.62q.12.41.21.81c0,.14,0,.28.07.41l-.06-.43a3.61,3.61,0,0,0,.07.84c0,.21,0,.42.05.63a17.56,17.56,0,0,0,.52,3.61c.27,1,.64,1.93,1,2.88A5.71,5.71,0,0,0,40,140.15c1.46.76,3.48,1.14,4.94.25a6.43,6.43,0,0,0,2.36-3.16,14.84,14.84,0,0,0,.92-7.09A3.27,3.27,0,0,0,45,127c-1.62.07-3.35,1.41-3.2,3.2.1,1.28-.06,2.53-.08,3.81,0,.41.14-.65,0-.25,0,.13,0,.26-.09.39a3.49,3.49,0,0,0-.16.49c0-.14.28-.61.08-.21-.11.24-.22.49-.35.72s-.39.56-.06.18c.16-.19.19-.22.07-.1s-.08.11.29-.23l1.62-.44c.5.11.59.13.27.07l-.33-.07-.33-.09.46.2a1.69,1.69,0,0,1-.29-.17,1.85,1.85,0,0,1,.69.64c.42.73.11.25,0,0-.34-1-.71-2-1-3-.07-.25-.14-.5-.19-.76s-.06-.28-.08-.41c.06.46.07.57,0,.32,0-.49-.09-1-.13-1.47a16.68,16.68,0,0,0-.54-3.66l-6.18,1.71a4,4,0,0,0,1.74,2.21,4.33,4.33,0,0,0,2.06.5h.3l-.57-.08c-1.51-1.34-1.94-1.61-1.27-.81a3.29,3.29,0,0,0,.33.41,3.53,3.53,0,0,0,3,.92,10.5,10.5,0,0,0,5.24-2.73L40.9,126a6.17,6.17,0,0,1,.06,1,4.71,4.71,0,0,1,0,.53c-.06.69-.06-.08,0-.11a5.74,5.74,0,0,0-.17,1.06c-.09.56-.17,1.13-.23,1.7-.16,1.46.17,2.91.07,4.38l5.47-2.27c.69.9.06-.14,0-.18q.28.72.09.21l-.15-.41a15.86,15.86,0,0,1-.5-1.66c-.07-.28-.13-.57-.18-.85s0-.29-.07-.43c-.06-.35,0-.28,0,.21-.16-.06-.11-1.54-.12-1.73a3.21,3.21,0,1,0-6.41,0Z"/><path class="cls-3" d="M42.16,141.19a13.23,13.23,0,0,0,1.15,3,13.55,13.55,0,0,0,1.88,2.63,2.4,2.4,0,0,0,1,.66,2.86,2.86,0,0,0,2.47,0,2.4,2.4,0,0,0,1-.66,3.22,3.22,0,0,0,.94-2.27l-.11-.85a3.26,3.26,0,0,0-.83-1.41c-.16-.18-.31-.36-.45-.55l.5.65a9.43,9.43,0,0,1-1.25-2.15l.32.77a9.76,9.76,0,0,1-.5-1.56,2.41,2.41,0,0,0-.58-1.09,2.89,2.89,0,0,0-2.09-1.2,2.43,2.43,0,0,0-1.28.05,3.25,3.25,0,0,0-1.91,1.48,3.42,3.42,0,0,0-.32,2.47Z"/><path class="cls-3" d="M50.73,141.1c-.08-.3-.15-.59-.21-.9,0-.15-.05-.3-.07-.45l0,.39a7.55,7.55,0,0,1-.16-1.72,34.62,34.62,0,0,0-.47-3.95c-.45-2.38-3.79-3.09-5.36-1.42a13.88,13.88,0,0,0-2.36,3.33,16.72,16.72,0,0,0-.87,2.09c0,.11-.07.23-.11.35s-.24.68,0,.15-.22.12.14-.23c.09-.09.73-.55.37-.38l1.62-.43h-.15l1.62.43c.85.92,1.1,1.14.74.65l-.25-.36a3.24,3.24,0,0,0-4-1.31,3.19,3.19,0,0,0-1.85,3.78,11.84,11.84,0,0,0,.76,1.8c.11.21.36.94,0,.07.21.58,0-.71,0,0a8,8,0,0,0,.9,3.62,6.21,6.21,0,0,0,2.6,2.88,20.67,20.67,0,0,0,3.22,1.35,5.06,5.06,0,0,0,4.22-.13,4.88,4.88,0,0,0,2.28-4.07c.19-2.36-1.07-4.41-2.19-6.36a3.24,3.24,0,0,0-4.39-1.15,3.27,3.27,0,0,0-1.15,4.38c.36.63.75,1.24,1.08,1.88l.1.2c.1.23.07.14-.1-.26a1.9,1.9,0,0,0,.14.4c.06.17.08.35.14.51.12.36,0-.6,0-.23,0,0,0,.52,0,.53l.06-.44c-.07.24,0,.23.06-.05a2.17,2.17,0,0,1,.89-.86,1.36,1.36,0,0,1,1-.35l.49.08a4,4,0,0,0-.87-.26c-.38-.13-.74-.27-1.11-.41s.52.24.12,0c-.17-.08-.35-.15-.52-.24l-.38-.2c-.45-.25.16.17.26.27.35.32,0-.05-.09-.19s-.12-.25-.19-.37-.32-.68-.1-.19-.06-.2,0-.2.05.76,0,.23c0-.17,0-.34,0-.52a6.87,6.87,0,0,0-.25-1.55,10.11,10.11,0,0,0-.65-1.51l-.18-.37c-.33-.63.23.68,0,0l-5.86,2.47a10.08,10.08,0,0,0,1.06,1.44,3.58,3.58,0,0,0,3.36.89c1.65-.37,2.6-2,3.14-3.43.14-.36.26-.73.39-1.1s0-.13-.13.29c0-.09.08-.19.13-.28s.18-.36.28-.54a8.61,8.61,0,0,1,.65-1l.18-.25c-.27.35-.33.43-.18.25s.31-.36.48-.54l-5.36-1.41c0,.15.06.3.08.45.06.36,0,.31,0-.16a3.84,3.84,0,0,1,.07.69c.05.57.09,1.15.14,1.73a21.67,21.67,0,0,0,.58,3.93A3.23,3.23,0,0,0,48.49,145a3.27,3.27,0,0,0,2.24-3.94Z"/><path class="cls-3" d="M42.9,150.3c1.75,2.48,3.42,5,5.06,7.58s3.11,5.1,4.8,7.55a5.51,5.51,0,0,0,4.58,2.76c2.57,0,3.74-2.25,4.13-4.47a11.66,11.66,0,0,0,0-5.32,7.34,7.34,0,0,0-1-2.12c-.3-.42-.62-.82-.94-1.21-.1-.12-.63-.77-.33-.38a22.45,22.45,0,0,1-2.42-4.06c-.34-.69-.65-1.39-.95-2.09.2.47-.15-.37-.21-.51-.18-.43-.35-.86-.52-1.28-.62-1.55-2.16-2.82-3.94-2.24-1.5.48-2.91,2.28-2.24,3.94a45.07,45.07,0,0,0,4.13,8.6c.52.77,1.09,1.51,1.67,2.22.05.06.59.79.21.24.1.14.59,1.1.36.46a5.29,5.29,0,0,1,.15.57c-.05-.36-.06-.34,0,0s0,.65,0,1,0,.44-.06.66c0-.3,0-.25,0,.14,0,.22-.09.43-.15.65-.25.75,0,.49.77-.79l1.62-.44c-.57,0-.35.13.67.27.33.29.37.31.11.07s-.22-.24,0,.09l-.27-.4c-.43-.67-.85-1.34-1.27-2-.91-1.42-1.81-2.86-2.72-4.28-1.82-2.85-3.66-5.68-5.61-8.44a3.28,3.28,0,0,0-4.38-1.15c-1.36.88-2.18,2.92-1.15,4.39Z"/><path class="cls-3" d="M56.4,169.88a10.37,10.37,0,0,0,2.28,1.67c.31.22.32.23,0,0l.43.39c.28.28.54.56.8.85,1,1.14,2,2.27,3.1,3.34a27.77,27.77,0,0,0,8,5.78,3.27,3.27,0,0,0,4.38-1.15,9.58,9.58,0,0,0,.88-4c.14-1.39.51-2.9-.22-4.19a7.32,7.32,0,0,0-2.79-2.35c-.21-.13-.41-.28-.61-.42s.25.23-.17-.14-.82-.73-1.2-1.12c-1.44-1.51-2.57-3.28-4.15-4.65-.77-.67-1.6-1.24-2.31-2s.22.4-.26-.33c-.14-.21-.28-.43-.41-.65-.29-.49-.56-1-.82-1.5A3.22,3.22,0,0,0,59,158.36a3.26,3.26,0,0,0-1.15,4.38A14.74,14.74,0,0,0,61,167.16a29.45,29.45,0,0,1,3.34,3.08,42.19,42.19,0,0,0,3,3.43,21.82,21.82,0,0,0,2.25,1.82c.33.23.66.45,1,.65a5.39,5.39,0,0,0,.52.3q.7.44-.54-.57l-.43-1.62A11.39,11.39,0,0,1,70,176.5c0,.39-.09.78-.12,1.18s0,.45,0,0c-.09.35-.07.31.07-.1l4.38-1.15a22.81,22.81,0,0,1-3.91-2.28c-.3-.23-.33-.24-.08-.05l-.47-.39c-.32-.25-.62-.52-.93-.79-.53-.48-1-1-1.55-1.48-1.07-1.07-2.06-2.22-3.08-3.33a13.56,13.56,0,0,0-1.91-1.72c-.31-.23-.63-.44-1-.64l-.49-.31c.26.21.27.19,0-.06a3.21,3.21,0,0,0-4.53,0,3.27,3.27,0,0,0,0,4.53Z"/><path class="cls-3" d="M74.9,184.64a48.39,48.39,0,0,1,4.41,2.05,29.16,29.16,0,0,0,5.6,1.92c3.6.87,7.08,2.28,10.74,2.92l-.77-5.86c.41-.18-.61.1-.09,0h-.35c.23,0,.2,0-.08-.07l1.41.83-.14-.18.82,3.12c-.18.29-.17.27,0-.06s.22-.34,0-.09a4.37,4.37,0,0,1,.64-.65c-.44.37.3-.16.35-.19.34-.17.36-.18.07,0a2.32,2.32,0,0,0,.91-.43,3.31,3.31,0,0,0,1.47-3.62c-.5-2-2.24-2.48-4-2.81-1.3-.25-2.56-.68-3.84-1-2.71-.73-5.44-1.33-8.18-1.92a3.2,3.2,0,1,0-1.7,6.18c2.34.51,4.69,1,7,1.61,1.08.28,2.14.59,3.21.89.54.15,1.07.3,1.62.41l.89.16c.28.05.74.33.24,0l-1.47-1.92,0,.14,1.48-3.62c.46-.17.44-.15,0,.05l-.53.22c-.23.11-.45.22-.67.35a10.15,10.15,0,0,0-1.61,1.24,7.37,7.37,0,0,0-2.08,3.28,3.58,3.58,0,0,0,2.93,4.41,7.91,7.91,0,0,0,4.88-.72c2.44-1.1,1.87-5.4-.76-5.86-3.65-.64-7.13-2-10.73-2.92a22.75,22.75,0,0,1-4.76-1.61,46.6,46.6,0,0,0-5.25-2.37,3.24,3.24,0,0,0-4,2.24,3.3,3.3,0,0,0,2.24,3.95Z"/><path class="cls-3" d="M80.2,175.68a16.6,16.6,0,0,1-.94-1.51,2.54,2.54,0,0,0-.82-.9,2.49,2.49,0,0,0-1.09-.57,2.54,2.54,0,0,0-1.28-.06,2.39,2.39,0,0,0-1.19.38l-.65.5a3.24,3.24,0,0,0-.83,1.42l-.11.85a3.18,3.18,0,0,0,.44,1.62,15.8,15.8,0,0,0,.94,1.51,3.64,3.64,0,0,0,1.91,1.47,2.54,2.54,0,0,0,1.28.06,2.31,2.31,0,0,0,1.19-.39l.65-.5a3.26,3.26,0,0,0,.83-1.41l.11-.85a3.18,3.18,0,0,0-.44-1.62Z"/><path class="cls-3" d="M80.1,181c4.12,0,4.13-6.41,0-6.41S76,181,80.1,181Z"/><path class="cls-3" d="M82.61,182c4.13,0,4.13-6.4,0-6.4s-4.13,6.4,0,6.4Z"/><path class="cls-3" d="M83.6,182.76l.05,0a2.43,2.43,0,0,0,1.28.05,2.89,2.89,0,0,0,2.09-1.2,2.41,2.41,0,0,0,.58-1.09l.11-.85a3.18,3.18,0,0,0-.44-1.62l-.5-.65a3.15,3.15,0,0,0-1.41-.82l-.06,0a2.42,2.42,0,0,0-1.28-.05,2.33,2.33,0,0,0-1.19.38,3.51,3.51,0,0,0-1.47,1.91l-.12.85a3.18,3.18,0,0,0,.44,1.62l.5.65a3.13,3.13,0,0,0,1.42.82Z"/><path class="cls-3" d="M98.4,193.39c4.12,0,4.13-6.41,0-6.41s-4.14,6.41,0,6.41Z"/><path class="cls-3" d="M99.26,193.72a10.65,10.65,0,0,0,2.38.32,2.6,2.6,0,0,0,.4,0,8.56,8.56,0,0,0,1.13-.17c.28-.06.54-.17.82-.21l-.86.11c.47-.05.94.06,1.41,0a3.17,3.17,0,0,0,1.62-.43,3.33,3.33,0,0,0,1.15-1.15,3.23,3.23,0,0,0,0-3.24,9.6,9.6,0,0,0-1.17-1.52,11.9,11.9,0,0,0-1.41-1.16c-.58-.44-1.2-.81-1.78-1.25l.65.5a5.45,5.45,0,0,1-1-.95l.5.65-.08-.1a2.3,2.3,0,0,0-.82-.9,2.45,2.45,0,0,0-1.09-.58,2.42,2.42,0,0,0-1.28,0,2.36,2.36,0,0,0-1.19.38,3.23,3.23,0,0,0-1.47,1.91l-.12.85a3.28,3.28,0,0,0,.44,1.62,9.28,9.28,0,0,0,1.1,1.32,15.33,15.33,0,0,0,1.36,1.08c.53.39,1.09.73,1.61,1.13l-.64-.5a5.57,5.57,0,0,1,1,1l-.5-.65c.12.16.23.33.34.5l2.77-4.83c-.44,0-.88,0-1.32,0a6.12,6.12,0,0,0-1.41.24,4,4,0,0,1-.62.15l.85-.11a4.61,4.61,0,0,1-1.05,0l.86.11c-.3,0-.6-.1-.89-.16a3.42,3.42,0,0,0-2.47.32,2.47,2.47,0,0,0-.9.83,2.44,2.44,0,0,0-.57,1.09,3.19,3.19,0,0,0,2.24,3.94Z"/><path class="cls-3" d="M94.74,187.71c4.12,0,4.13-6.41,0-6.41s-4.13,6.41,0,6.41Z"/><path class="cls-3" d="M104,193.47c5.08,1.48,10.63,1.29,15.88,1.54,3.21.16,4.33-4.45,1.62-6-5.7-3.21-12.35-2.66-18.34-4.95l-1.7,6.18a124.12,124.12,0,0,0,22,1.32,3.21,3.21,0,0,0,0-6.41,115.83,115.83,0,0,1-20.34-1.09c-1.65-.24-3.52.41-3.94,2.24a3.29,3.29,0,0,0,2.24,3.94,44.86,44.86,0,0,0,8.89,2,24.52,24.52,0,0,1,7.92,2.32l1.61-6c-4.75-.23-9.73,0-14.18-1.31a3.23,3.23,0,0,0-3.94,2.23,3.27,3.27,0,0,0,2.24,3.95Z"/><path class="cls-3" d="M121.45,194.09a8.26,8.26,0,0,0,4.72-.22c.35-.09.7-.17,1.06-.23-.58.1,0,0,.28,0,.67-.05,1.34-.07,2-.11a58.38,58.38,0,0,0,8.55-1,3.22,3.22,0,0,0,2.23-3.94,3.27,3.27,0,0,0-3.94-2.24l-1,.19-.42.06h0l-1.71.21c-1.24.14-2.49.27-3.73.35a32.45,32.45,0,0,0-4.28.41c-.51.1-1,.25-1.52.38l-.5.11.34-.05a2.9,2.9,0,0,1-.51,0c.42.06.46,0,.1-.05a3.23,3.23,0,0,0-3.94,2.24,3.27,3.27,0,0,0,2.24,3.94Z"/><path class="cls-3" d="M131.66,184.88a30.89,30.89,0,0,1-3.45-.3l.85.12c-.94-.13-1.87-.28-2.81-.43a2.53,2.53,0,0,0-1.28-.06,2.42,2.42,0,0,0-1.19.38,3.22,3.22,0,0,0-1.15,4.39,3.09,3.09,0,0,0,1.91,1.47,55.08,55.08,0,0,0,7.12.84,3.21,3.21,0,1,0,0-6.41Z"/><path class="cls-3" d="M131.86,189.44a5.06,5.06,0,0,1,.77-.18l-.86.11c.93-.11,1.85,0,2.78-.1a15.76,15.76,0,0,0,3.21-.65c1.74-.48,3.57-.5,5.27-1.1a3.2,3.2,0,1,0-1.7-6.18,21,21,0,0,1-3.61.75c-1.23.2-2.4.67-3.63.85l.85-.12c-1.6.18-3.21,0-4.78.44a3.2,3.2,0,0,0,1.7,6.18Z"/><path class="cls-3" d="M141.89,190.53a14.94,14.94,0,0,0,3.74-1.24c1-.6,2-1.11,3-1.65a11,11,0,0,0,1.56-1.07l.3-.23c-.39.3,0,0,.06,0,.24-.17.48-.32.73-.47s-.13.06-.26.09c.12,0,.23-.09.35-.13l.71-.24a11.82,11.82,0,0,0,2.14-.9l-4.82-2.77a.86.86,0,0,1,0,.32l.11-.85a2.28,2.28,0,0,1,.48-.86c.24-.25.58-.27.82-.47a3.57,3.57,0,0,1-.8.26,8.46,8.46,0,0,0-1.28.54,3,3,0,0,0-.3.19c-.24.18.72-.2.2-.13l.86-.11-.17,0a3.24,3.24,0,0,0-2.27.94,3.32,3.32,0,0,0-.94,2.27,3.22,3.22,0,0,0,.94,2.26,3.67,3.67,0,0,0,2.27.94,4.09,4.09,0,0,0,2.57-.76q.34-.18-.06,0c-.27.11-.28.11,0,0l.71-.23c1.79-.65,3.49-2.23,3.3-4.32a3.34,3.34,0,0,0-1.59-2.77,3.24,3.24,0,0,0-3.23,0c-.11.07-.22.12-.33.18-.38.21.13-.08.25-.1a5,5,0,0,0-.71.24,15.55,15.55,0,0,0-2,.79,7.57,7.57,0,0,0-1.28.83l-.8.62c.11-.08.54-.39.19-.15s-.49.34-.75.49c-.93.53-1.91,1-2.81,1.54-.21.14-.44.25-.64.39s.59-.17.22-.09l-.39.11c-.57.14-1.15.22-1.71.39a3.2,3.2,0,1,0,1.7,6.18Z"/><path class="cls-3" d="M144.85,185.51l.28-.06-.85.12c.67-.09,1.35,0,2-.12a9.27,9.27,0,0,0,2.54-.85l-.76.32c.84-.36,1.73-.59,2.58-.92a17.78,17.78,0,0,0,3-1.46,3.35,3.35,0,0,0,1.47-1.91,3.2,3.2,0,0,0-4.71-3.62,13.25,13.25,0,0,1-1.83,1l.77-.32c-.61.25-1.23.46-1.85.66-.83.28-1.63.64-2.44,1l.76-.32a3.36,3.36,0,0,1-.82.24l.85-.11a17,17,0,0,0-2.74.23,3.21,3.21,0,0,0,1.71,6.18Z"/><path class="cls-3" d="M157.42,183.62l.24-.19-.65.5c.7-.52,1.46-1,2.2-1.4a24.74,24.74,0,0,0,2.17-1.51c1.58-1.21,3.08-2.52,4.65-3.75A3.2,3.2,0,0,0,167,175a3.25,3.25,0,0,0-.94-2.26,3.22,3.22,0,0,0-2.27-.94l-.85.11a3.17,3.17,0,0,0-1.41.83c-1.31,1-2.57,2.13-3.88,3.15l.65-.5c-1.73,1.34-3.68,2.32-5.38,3.7a3.19,3.19,0,0,0-.94,2.26,3.26,3.26,0,0,0,.94,2.27,3.22,3.22,0,0,0,2.27.94,3.67,3.67,0,0,0,2.26-.94Z"/><path class="cls-3" d="M158.7,172.4c-1.06.41-2.17.69-3.25,1s-2.13.8-3.18,1.23a2.41,2.41,0,0,0-1.09.58,2.3,2.3,0,0,0-.82.9,3.21,3.21,0,0,0,1.15,4.38,3.11,3.11,0,0,0,2.47.32c1.05-.43,2.09-.88,3.17-1.23s2.19-.63,3.26-1a2.49,2.49,0,0,0,1.09-.57,2.54,2.54,0,0,0,.82-.9,3.28,3.28,0,0,0,.32-2.47,3.23,3.23,0,0,0-1.47-1.92,3.11,3.11,0,0,0-2.47-.32Z"/><path class="cls-3" d="M160.43,177.3a16.79,16.79,0,0,0,3.19-1.69,27.84,27.84,0,0,1,2.53-1.62c2-1.05,4.09-1.77,5.69-3.47a3.2,3.2,0,0,0-4.53-4.53,9.07,9.07,0,0,1-.72.67l.64-.5c-1.43,1.1-3.17,1.63-4.72,2.52a44.94,44.94,0,0,1-4.39,2.7l.76-.33-.15.07a3.48,3.48,0,0,0-1.92,1.47,3.28,3.28,0,0,0-.32,2.47A3.24,3.24,0,0,0,158,177a3.12,3.12,0,0,0,2.47.33Z"/><path class="cls-3" d="M167.38,168.34a17.24,17.24,0,0,1-1.56,1.52,8.7,8.7,0,0,0-1.16,1.41c-.2.3-.3.65-.52.93l.51-.64-.14.13.65-.5-.08.05a3.4,3.4,0,0,0-1.47,1.92,2.53,2.53,0,0,0-.06,1.28,2.46,2.46,0,0,0,.38,1.19,3.22,3.22,0,0,0,1.92,1.47l.85.12a3.28,3.28,0,0,0,1.62-.44l.08-.06a6.9,6.9,0,0,0,.68-.53,5,5,0,0,0,.61-.77,2.6,2.6,0,0,0,.21-.36,3.66,3.66,0,0,1,.43-.74l-.51.65c.61-.78,1.48-1.32,2.1-2.1a2.4,2.4,0,0,0,.66-1,2.86,2.86,0,0,0,0-2.47,2.4,2.4,0,0,0-.66-1,3.24,3.24,0,0,0-2.27-.94l-.85.11a3.3,3.3,0,0,0-1.42.83Z"/><path class="cls-3" d="M168.17,171.28a9.87,9.87,0,0,0,2-1.36,10.13,10.13,0,0,0,1.31-1.31c1-1.2,1.9-2.5,2.86-3.74l-.5.64.73-.93a3.6,3.6,0,0,0,.94-2.27,3.25,3.25,0,0,0-.94-2.26,3.22,3.22,0,0,0-2.27-.94,3.08,3.08,0,0,0-2.26.94c-1,1.31-2,2.67-3,4l.5-.65a11.76,11.76,0,0,1-2,2.1l.65-.5a6.69,6.69,0,0,1-1.23.74,3.17,3.17,0,0,0-1.47,1.91,3.27,3.27,0,0,0,.32,2.47,3.18,3.18,0,0,0,1.92,1.47l.85.12a3.18,3.18,0,0,0,1.62-.44Z"/><path class="cls-3" d="M172.74,164.1q-.72.61-1.47,1.2l.65-.5c-.34.26-.68.52-1,.77a3.51,3.51,0,0,0-1.47,1.91,3.57,3.57,0,0,0,.32,2.47l.5.65a3.15,3.15,0,0,0,1.41.82l.86.12a3.17,3.17,0,0,0,1.61-.44,39.82,39.82,0,0,0,3.15-2.47,2.47,2.47,0,0,0,.66-1,2.41,2.41,0,0,0,.28-1.24,2.37,2.37,0,0,0-.28-1.23,2.4,2.4,0,0,0-.66-1l-.65-.5a3.18,3.18,0,0,0-1.62-.44l-.85.11a3.17,3.17,0,0,0-1.41.83Z"/><path class="cls-3" d="M174.12,160.32a4,4,0,0,1-.16.45l.32-.77a3.77,3.77,0,0,1-.52.89l.5-.65-.09.12a2.39,2.39,0,0,0-.67,1,2.42,2.42,0,0,0-.27,1.24,2.36,2.36,0,0,0,.27,1.23,2.34,2.34,0,0,0,.67,1l.65.51a3.13,3.13,0,0,0,1.61.43l.86-.11a3.17,3.17,0,0,0,1.41-.83c.21-.25.42-.52.62-.79l.12-.18a3.48,3.48,0,0,0,.22-.36,10,10,0,0,0,.49-1.12,3.52,3.52,0,0,0,.15-.42,2.53,2.53,0,0,0,.06-1.28,3.29,3.29,0,0,0-2.3-2.66l-.85-.12a3.28,3.28,0,0,0-1.62.44l-.65.5a3.22,3.22,0,0,0-.82,1.42Z"/><path class="cls-3" d="M173,156.29c-.21.26-.42.52-.61.8l-.1.17,0,.08,0,0-.34.79-.06.19a2.33,2.33,0,0,0-.06,1.28,2.42,2.42,0,0,0,.38,1.19,3.51,3.51,0,0,0,1.91,1.47l.86.12a3.17,3.17,0,0,0,1.61-.44l.65-.5a3.26,3.26,0,0,0,.83-1.41,1.59,1.59,0,0,1,.07-.2l-.33.77a2.43,2.43,0,0,1,.26-.44l-.5.65,0,0a2.4,2.4,0,0,0,.66-1,2.36,2.36,0,0,0,.27-1.23,2.4,2.4,0,0,0-.27-1.24,2.47,2.47,0,0,0-.66-1l-.65-.5a3.18,3.18,0,0,0-1.62-.44l-.85.12a3.18,3.18,0,0,0-1.42.82Z"/><path class="cls-3" d="M176.34,156.59c-.29.75-.58,1.5-.85,2.25l-.12.85a2.49,2.49,0,0,0,.28,1.24,1.55,1.55,0,0,0,.41.71,2.54,2.54,0,0,0,.9.82l.77.32.85.12a2.37,2.37,0,0,0,1.23-.28,2.4,2.4,0,0,0,1-.66l.91-.81.42-.37a7.34,7.34,0,0,0,.83-1,2.36,2.36,0,0,0,.38-1.19,3.31,3.31,0,0,0-1.53-3.2l-.76-.32a3.31,3.31,0,0,0-1.71,0l-.76.32a3.25,3.25,0,0,0-1.15,1.15.86.86,0,0,0-.07.1l.5-.65a6.18,6.18,0,0,1-.74.71l-.85.76,5.36,3.12c.27-.76.56-1.51.85-2.25a2.33,2.33,0,0,0,.06-1.28,2.42,2.42,0,0,0-.38-1.19,2.47,2.47,0,0,0-.83-.9,2.38,2.38,0,0,0-1.09-.57l-.85-.12a3.14,3.14,0,0,0-1.61.44l-.65.5a3.17,3.17,0,0,0-.83,1.41Z"/><path class="cls-3" d="M179.38,149.34a18.35,18.35,0,0,0-4.36,4.43,3.17,3.17,0,0,0,.25,3.56,3.25,3.25,0,0,0,3.37,1.15c-.37,0-.36,0,0,0l.6,0a9.58,9.58,0,0,0,1.68-.13,4.63,4.63,0,0,0,1.51-.5,1.73,1.73,0,0,0,.43-.27c.93-.66.86-.67-.2,0H181l.21,0-1.42-.83c-.39-1.59-.6-2-.65-1.25a3.22,3.22,0,0,0,2.35,3.09,3.3,3.3,0,0,0,3.62-1.48c1.6-2.66,2.87-5.51,4.24-8.29.71-1.45,1.42-2.9,2.15-4.35a17.77,17.77,0,0,0,2-4.54,3.34,3.34,0,0,0-.82-3.12,3.15,3.15,0,0,0-3.12-.82,13.06,13.06,0,0,1-2.76.73,5.79,5.79,0,0,0-1.42.41,4.41,4.41,0,0,0-.78.4l-.65.5c-.3.28-.22.22.24-.17l2.47-.33-.14-.05,1.91,1.47-.08-.15.44,1.62c-.08.56-.08.56,0,0a3.14,3.14,0,0,0,.07-.68,3.2,3.2,0,0,0-6-1.62c-.93,1.93-1.07,4.09-1.81,6.09,0,.07-.3.77-.14.38s-.14.3-.18.37c-.19.42-.4.83-.62,1.23s-.51.87-.78,1.3l-.39.56c-.09.12-.58.77-.16.24a3.48,3.48,0,0,0-.94,2.26,3.26,3.26,0,0,0,.94,2.27c1.15,1.06,3.43,1.41,4.53,0a25.84,25.84,0,0,0,3.62-6.14,21,21,0,0,0,1-2.87c.11-.45.21-.9.29-1.35.06-.28.1-.55.17-.83s.35-.88.05-.27l-6-1.62c.08-.63.06-.46-.07.5a7.07,7.07,0,0,0,.13,1,3.52,3.52,0,0,0,1.55,2.07,3.46,3.46,0,0,0,2.61.37c.81-.22,1-.58,1.65-1a1.41,1.41,0,0,1-.63.35,2.47,2.47,0,0,1,.47-.11c.32-.07.66-.1,1-.16a11.23,11.23,0,0,0,2.12-.63l-3.94-3.94a3.1,3.1,0,0,1-.11.51c.16-.36.16-.37,0,0s-.33.64-.49.95c-.37.72-.73,1.44-1.09,2.17q-1,2-2,4c-1.32,2.7-2.55,5.43-4.09,8l6,1.62a3.76,3.76,0,0,0-5.15-3.93c-.2.09-1.83,1.19-.94.61.39-.14.4-.16.05-.07q.57-.07.21-.06a7.42,7.42,0,0,0-2.78.2l3.62,4.71c.1-.15.21-.3.32-.44-.23.28-.23.29,0,0s.42-.48.64-.71.45-.44.69-.65l.42-.36c-.3.22-.3.23,0,0a3.28,3.28,0,0,0,1.15-4.38c-.87-1.34-2.94-2.21-4.39-1.15Z"/><path class="cls-3" d="M183.87,135c0,.27,0,.53,0,.8,0,.11-.1.8,0,.26a3.26,3.26,0,0,0,1.86,3.78c1.32.56,3.37.16,4-1.31a23.32,23.32,0,0,0,1.22-3.43A3.22,3.22,0,0,0,189,131.3a3.18,3.18,0,0,0-4,1.31,3.6,3.6,0,0,0,.91,4.64,3.82,3.82,0,0,0,1.89.75,4.87,4.87,0,0,0,.76.06c.22,0,.77.09,0-.07l-1.92-1.47.09.16-.44-1.62a3.54,3.54,0,0,0,2.1,3.47,3.44,3.44,0,0,0,1.59.33,3.33,3.33,0,0,0,1-.17c1.07-.41,1-.44-.15-.07l-3.2-3.21,0,.19a3.14,3.14,0,0,0,2,2.92,3.31,3.31,0,0,0,3.5-.66l.14-.11-1.42.82-.5.07a3.23,3.23,0,0,0,3.09-2.35c.34-1.65.47-3.33.83-5a29.12,29.12,0,0,1,1.54-4.56l-6.18-1.71-.19.84a3.21,3.21,0,1,0,6.18,1.71l.65-1.7-.83,1.42.1-.1-3.88.5.07,0a3.32,3.32,0,0,0,2.85.16,3.08,3.08,0,0,0,1.86-2.07,3.8,3.8,0,0,0-.44-3.1,3.27,3.27,0,0,0-3.62-1.47c-2.07.79-3.12,2.47-4.09,4.37l-.18.35c-.3.46-.14.33.5-.39.35-.17.34-.19,0,0a2.64,2.64,0,0,0-.94.45,12.73,12.73,0,0,0-2.06,2l5.36,1.42-.12-.39c-.78-2.52-4.52-3.29-5.86-.76l-.3.57a3.2,3.2,0,1,0,5.53,3.24,17,17,0,0,0,2.17-6.1,24.41,24.41,0,0,0,.35-3.51,11.82,11.82,0,0,0-.18-2.14q0-.32-.12-.63l-.12-.42c-.07-.25,0-.16.07.28l-.43,1.62.11-.18-1.15,1.15c-.47.21-.38.21.09.16.24,0,.22,0-.05,0,.66.19.45,0-.64-.44l-.94-2.26,0,.17a3.3,3.3,0,0,0,3.2,3.2l.2,0-1.62-.44-.72-.76A3.2,3.2,0,0,0,197,118.5a4,4,0,0,0-3.39-2l3.21,3.21a3.8,3.8,0,0,0-2.65-3.51,7.53,7.53,0,0,0-2.63-.34,4.68,4.68,0,0,0-4,1.86,4.16,4.16,0,0,0-.32,3.48c0,.15.08.31.11.47,0-.32,0-.29,0,.1s0,.87,0,1.3-.07.83-.11,1.24c.07-.65-.07.39-.1.52a15.21,15.21,0,0,1-.58,2.23,5.71,5.71,0,0,1-.21.58c.13-.29.12-.27,0,.08s-.37.72-.58,1.07l5.53,3.24.31-.58-5.86-.76.12.38a3.23,3.23,0,0,0,5.35,1.41l.84-.87.21-.22c.44-.41.24-.34-.6.24.31.06,1-.35,1.27-.51a4.5,4.5,0,0,0,1.27-1.15,14.11,14.11,0,0,0,1.07-1.79c.15-.29.31-.56.49-.84s.23-.36.35-.54a1.37,1.37,0,0,1-.94.64L191.5,126l-.16-.36v-1.71l-.05.22,4.71-1.91-.08,0a3.34,3.34,0,0,0-3.88.5,8.55,8.55,0,0,0-1.57,3.2l6.18,1.71.19-.84a3.27,3.27,0,0,0-2.24-4,3.3,3.3,0,0,0-3.94,2.24,29.47,29.47,0,0,0-1.54,4.56c-.36,1.65-.49,3.33-.83,5l3.09-2.35a4,4,0,0,0-2.76,1.1l5.47,2.27,0-.19c.2-1.75-1.62-3.17-3.2-3.2a3.53,3.53,0,0,0-1.21.15,5.21,5.21,0,0,0-.5.2c-.91.35-.48.33,1.31,0l1.42.82-.11-.13.94,2.26c-.15-1.37-.4-2.58-1.69-3.34a4.19,4.19,0,0,0-1.83-.48h-.51c-.82,0-.39.19,1.3.67l.82,1.41,0-.19-.33,2.47.09-.17-5.86-2.47c-.1.41-.21.81-.34,1.21,0,.11-.46,1.22-.23.7l5.85,2.47a18.44,18.44,0,0,0,.28-2.77,3.23,3.23,0,0,0-3.2-3.2,3.26,3.26,0,0,0-3.21,3.2Z"/><path class="cls-3" d="M189.68,112c0,1.25-.09,2.49-.19,3.74h6.41a12.75,12.75,0,0,0-.57-2.94,3.7,3.7,0,0,0-.83-1.42l-.65-.5a2.39,2.39,0,0,0-1.19-.38,3.19,3.19,0,0,0-1.66.22,1.61,1.61,0,0,0-.7.41,2.47,2.47,0,0,0-.83.9,13.56,13.56,0,0,0-1.32,3.74l6.3.86a3.59,3.59,0,0,0-1-2.57,3.42,3.42,0,0,0-5.24,4.31,3.1,3.1,0,0,0,1.15,1.15,2.24,2.24,0,0,0,1.19.38,2.42,2.42,0,0,0,1.28-.05,3.17,3.17,0,0,0,1.41-.83,4,4,0,0,0,.92-1.6,4.24,4.24,0,0,0,.11-.94l-.11-.85a.28.28,0,0,0,0-.12,3.51,3.51,0,0,0-1.47-1.91,2.33,2.33,0,0,0-1.19-.38,2.42,2.42,0,0,0-1.28,0,3.29,3.29,0,0,0-1.91,1.48l-.33.76a3.31,3.31,0,0,0,0,1.71.21.21,0,0,1,0,.11l-.11-.85v.06l.11-.85a.27.27,0,0,1,0,.12l.33-.77,0,.05.5-.64,0,0,5,.65a.39.39,0,0,1-.06-.11l.32.77,0-.06.12.85a.53.53,0,0,1,0-.13l-.11.85a.26.26,0,0,1,0-.11l-.32.77,0,0-1.15,1.15,0,0-.77.32h0l-.85.11h.05l-1.61-.44,0,0-.65-.51,0,0-.5-.65,0,0-.33-.76a.28.28,0,0,1,0,.12l-.11-.85v.14a3.25,3.25,0,0,0,.94,2.26l.65.5a2.33,2.33,0,0,0,1.19.38,1.54,1.54,0,0,0,.85,0,2.33,2.33,0,0,0,1.19-.38,3.07,3.07,0,0,0,1.47-1.91,11.15,11.15,0,0,1,.66-2.27l-.32.77c.1-.24.22-.48.33-.71l-5.85-.77a10.15,10.15,0,0,1,.42,1.73l-.12-.85c0,.12,0,.24,0,.36a2.47,2.47,0,0,0,.28,1.23,2.4,2.4,0,0,0,.66,1,3.2,3.2,0,0,0,4.53,0l.5-.65a3.17,3.17,0,0,0,.44-1.61c.1-1.25.16-2.49.19-3.74a3.21,3.21,0,0,0-3.21-3.2,3.18,3.18,0,0,0-2.26.94,3.35,3.35,0,0,0-.94,2.26Z"/><path class="cls-3" d="M192.58,110.47c4.12,0,4.13-6.4,0-6.4s-4.14,6.4,0,6.4Z"/><path class="cls-3" d="M191.82,110.34c4.12,0,4.13-6.41,0-6.41s-4.14,6.41,0,6.41Z"/><path class="cls-3" d="M191.56,110.29c4.12,0,4.13-6.41,0-6.41s-4.13,6.41,0,6.41Z"/><path class="cls-3" d="M191.32,110.28c4.12,0,4.13-6.41,0-6.41s-4.14,6.41,0,6.41Z"/><path class="cls-3" d="M188.12,111.63v.1a2.45,2.45,0,0,0,.58,1.09A2.86,2.86,0,0,0,190.8,114a2.54,2.54,0,0,0,1.28-.06l.76-.32A3.25,3.25,0,0,0,194,112.5l.33-.77a3.27,3.27,0,0,0,0-1.7l0-.1a2.38,2.38,0,0,0-.57-1.09,2.86,2.86,0,0,0-2.1-1.21,2.29,2.29,0,0,0-1.27.06l-.77.32a3.25,3.25,0,0,0-1.15,1.15l-.32.77a3.27,3.27,0,0,0,0,1.7Z"/><path class="cls-3" d="M188,110.4l0,.18a2.54,2.54,0,0,0-.06,1.28,2.42,2.42,0,0,0,.38,1.19,2.32,2.32,0,0,0,.83.9,2.36,2.36,0,0,0,1.09.58l.85.11a3.18,3.18,0,0,0,1.62-.44l.65-.5a3.24,3.24,0,0,0,.82-1.41l0-.18a2.42,2.42,0,0,0,0-1.28,2.24,2.24,0,0,0-.38-1.19,2.3,2.3,0,0,0-.82-.9,2.34,2.34,0,0,0-1.09-.57l-.85-.12a3.18,3.18,0,0,0-1.62.44l-.65.5a3.15,3.15,0,0,0-.82,1.41Z"/><path class="cls-3" d="M190.38,115.38c4.12,0,4.13-6.41,0-6.41s-4.13,6.41,0,6.41Z"/><path class="cls-3" d="M190.38,115.38c4.12,0,4.13-6.41,0-6.41s-4.13,6.41,0,6.41Z"/><path class="cls-3" d="M187.6,111.84l0,.12a2.39,2.39,0,0,0-.05,1.27,2.21,2.21,0,0,0,.38,1.19,2.3,2.3,0,0,0,.82.9,2.36,2.36,0,0,0,1.09.58l.85.11a3.18,3.18,0,0,0,1.62-.44l.65-.5a3.15,3.15,0,0,0,.82-1.41l.05-.12a2.53,2.53,0,0,0,.06-1.28,2.37,2.37,0,0,0-.39-1.19,3.51,3.51,0,0,0-1.91-1.47l-.85-.12a3.28,3.28,0,0,0-1.62.44l-.65.5a3.13,3.13,0,0,0-.82,1.42Z"/><path class="cls-3" d="M193.22,109.13a8.86,8.86,0,0,0,.16-1.26,7.36,7.36,0,0,0-.14-1.26,3,3,0,0,0-.09-.43,3.06,3.06,0,0,1-.13-.43l.11.85v-.14l-.11.85a.2.2,0,0,1,0-.11l-.33.76.06-.1-.5.65,0,0-.65.5.07,0-.76.32.05,0-.85.12h0a2.47,2.47,0,0,0,1.23-.28,3.25,3.25,0,0,0,2-2.93l-.11-.85a3.17,3.17,0,0,0-.83-1.41l-.64-.51a3.17,3.17,0,0,0-1.62-.43,3.43,3.43,0,0,0-3,1.7l-.05.09-.32.76a.14.14,0,0,0,0,.06,3.12,3.12,0,0,0-.13,1l.06.46c0,.16,0,.31.07.47a.52.52,0,0,0,0,.11,1.8,1.8,0,0,0,.08.21,2.78,2.78,0,0,1,.11.5l-.11-.85a2.35,2.35,0,0,1,0,.7l.12-.85s0,.08,0,.12a2.53,2.53,0,0,0-.06,1.28,2.46,2.46,0,0,0,.38,1.19,2.56,2.56,0,0,0,.83.9,2.44,2.44,0,0,0,1.09.57l.85.11a3.17,3.17,0,0,0,1.62-.43l.65-.5a3.28,3.28,0,0,0,.82-1.42Z"/><path class="cls-3" d="M191.54,110.74a5.14,5.14,0,0,1,.25,1l-.11-.85a14.43,14.43,0,0,1,0,2.37c0,.82.06,1.64,0,2.46l6.29-.85-.08-.46a3.22,3.22,0,0,0-1.47-1.92,3.28,3.28,0,0,0-2.47-.32,3.23,3.23,0,0,0-1.92,1.47l-.32.77a3.27,3.27,0,0,0,0,1.7l.08.46a3.22,3.22,0,0,0,1.47,1.92,3.32,3.32,0,0,0,2.05.38,3.07,3.07,0,0,0,1.84-.88l.5-.65a3.28,3.28,0,0,0,.44-1.62,11.47,11.47,0,0,0,0-1.55c0-.5,0-1,0-1.5a9.53,9.53,0,0,0-.42-3.64,3.38,3.38,0,0,0-1.47-1.91,3.19,3.19,0,0,0-4.38,1.14,3.16,3.16,0,0,0-.33,2.47Z"/><path class="cls-3" d="M190.88,105.24l.12.7-.12-.85a9.4,9.4,0,0,1,.07,1.76,2.43,2.43,0,0,0,.28,1.24,2.47,2.47,0,0,0,.66,1,2.4,2.4,0,0,0,1,.66,2.49,2.49,0,0,0,1.24.28l.85-.12a3.24,3.24,0,0,0,1.41-.82l.5-.65a3.18,3.18,0,0,0,.44-1.62,8.83,8.83,0,0,0,0-1.26,15.93,15.93,0,0,0-.28-2.06,2.41,2.41,0,0,0-.58-1.09,2.38,2.38,0,0,0-.9-.82,2.3,2.3,0,0,0-1.19-.38,2.33,2.33,0,0,0-1.28.06l-.76.32a3.17,3.17,0,0,0-1.15,1.15l-.32.76a3.11,3.11,0,0,0,0,1.71Z"/><path class="cls-3" d="M187.14,97.39c.08.34.14.68.19,1l-.11-.85a12.07,12.07,0,0,1,0,2.88l.12-.85a5.25,5.25,0,0,1-.29,1.1l.32-.77-.06.15,6,1.62v-.16a3.24,3.24,0,0,0-3.2-3.21,3.28,3.28,0,0,0-3.21,3.21v.17l.11-.85a1.23,1.23,0,0,1-.08.33l6.3.86a19.76,19.76,0,0,0-.61-4.39l.11.85a20.76,20.76,0,0,0-.67-3.75c-.32-1-.66-2.08-1-3.12a3.2,3.2,0,0,0-6.18,1.7,31.33,31.33,0,0,1,1.4,4.8l-.11-.85c.11.87.18,1.74.34,2.6.12.65.3,1.28.39,1.94l-.11-.85a5.47,5.47,0,0,1,0,1.07,3.15,3.15,0,0,0,.94,2.26,3.24,3.24,0,0,0,5.35-1.41,5.73,5.73,0,0,0,.2-1.36H186.9v.16a3.24,3.24,0,0,0,2.35,3.09,3.8,3.8,0,0,0,1.71,0,3.21,3.21,0,0,0,1.91-1.47,8.41,8.41,0,0,0,.67-1.94,13.19,13.19,0,0,0,.19-2.08,15.68,15.68,0,0,0-.41-3.61,3.23,3.23,0,0,0-3.94-2.23,3.28,3.28,0,0,0-2.24,3.94Z"/><path class="cls-3" d="M186.63,95c.55,1.11,1.08,2.23,1.56,3.37l-.32-.76c.39.93.75,1.87,1.09,2.83.17.46.31.92.48,1.38a3.54,3.54,0,0,0,2.62,2.48l-.77-.32a1.05,1.05,0,0,1,.26.13l-.65-.5a3.35,3.35,0,0,1,.43.41,3.24,3.24,0,0,0,3.88.5,3.71,3.71,0,0,0,1.15-1.15,3.19,3.19,0,0,0,.33-2.47,6.14,6.14,0,0,1-.4-1.57l.11.86a31.67,31.67,0,0,0-.8-5.31,13.43,13.43,0,0,0-1-2.86c-.44-.77-.91-1.52-1.36-2.28a3.21,3.21,0,0,0-5.54,3.23,31.38,31.38,0,0,1,1.63,2.8L189,95c.22.54.32,1.12.49,1.68a10.2,10.2,0,0,1,.4,1.63l-.11-.85c.23,1.71.12,3.52.77,5.15l5.35-3.12A4.77,4.77,0,0,0,193.48,98l1.42.83-.07-.08.82,1.42c-.51-1.31-.92-2.65-1.45-4-.63-1.53-1.3-3-2-4.5a3.22,3.22,0,0,0-4.38-1.15A3.27,3.27,0,0,0,186.63,95Z"/><path class="cls-3" d="M183.76,83.11a9,9,0,0,0,0,5.08,3.26,3.26,0,0,0,3.09,2.35A3.3,3.3,0,0,0,190,88.19l.15-.52a3.21,3.21,0,0,0-5.86-2.47,6,6,0,0,0-.79,2.15,4.58,4.58,0,0,0,0,1.28,4.49,4.49,0,0,0,.1.64c0-.49-.05-.57-.07-.23l.44-1.61-.09.18a3.22,3.22,0,0,0,3.62,4.7A5.44,5.44,0,0,0,190,90.79c.19-.18.38-.38.55-.57.34-.37,0,0-.18.11l.15-.09a2.43,2.43,0,0,1-1,.28l-1.61-.44a1.81,1.81,0,0,1-.63-.6,3.64,3.64,0,0,1,.23.39c.14.31.13.26-.06-.15.06.14.11.28.16.42l6.18-1.71c-.54-1.34-1.06-2.7-1.56-4.07s-1-2.89-1.59-4.29a28.57,28.57,0,0,0-4.73-6.95,3.21,3.21,0,0,0-4.53,0,3.28,3.28,0,0,0,0,4.53c.44.5.86,1,1.29,1.51l-.1-.13.31.43c.2.28.38.56.56.84.31.5.6,1,.89,1.51.12.21.24.41.35.62l.2.35a10.7,10.7,0,0,1,.62,1.75c.21.6.43,1.2.64,1.79.48,1.28,1,2.55,1.47,3.82a3.52,3.52,0,0,0,1.48,1.91,3.28,3.28,0,0,0,2.47.33c1.53-.5,2.86-2.26,2.23-3.95-.87-2.33-2.41-5-5.41-4.18a5.56,5.56,0,0,0-2.4,1.5c-.21.2-.42.42-.62.63s.16-.11.25-.18c-.49.31.73-.2.15-.07l3.62,4.71a4.41,4.41,0,0,0,.42-3.06c-.14-.56,0,.5-.07.65l-.16.38c.06-.13.13-.25.2-.37L183.94,86l-.15.51H190s-.2-.71-.18-.71c.05.41.06.49,0,.25s0-.25,0-.37v-.24c0-.37,0-.33,0,.12a2.17,2.17,0,0,1,.17-.71,3.21,3.21,0,1,0-6.18-1.71Z"/><path class="cls-3" d="M179.73,80.89a7,7,0,0,0,.84,1.72,11.8,11.8,0,0,0,.84,1,4.79,4.79,0,0,1,.43.47l-.5-.65a3.67,3.67,0,0,1,.46.82l-.32-.77c.15.38.27.76.39,1.15l.32.77a2.47,2.47,0,0,0,.83.9,1.61,1.61,0,0,0,.7.41A2.4,2.4,0,0,0,185,87l.85-.11.76-.32a2.32,2.32,0,0,0,.9-.83,2.36,2.36,0,0,0,.58-1.09l0-.2a3.32,3.32,0,0,0-.32-2.47,2.45,2.45,0,0,0-.82-.9,2.49,2.49,0,0,0-1.09-.57,3.23,3.23,0,0,0-2.47.32,3.28,3.28,0,0,0-1.48,1.91l0,.21h6.18a12.49,12.49,0,0,0-.89-2.29,7.27,7.27,0,0,0-.93-1.27c-.2-.22-.42-.42-.61-.65l.51.65a3.64,3.64,0,0,1-.47-.81l.32.77-.07-.18a3.51,3.51,0,0,0-1.47-1.91,2.36,2.36,0,0,0-1.19-.38,2.42,2.42,0,0,0-1.28,0,3.24,3.24,0,0,0-1.92,1.48,3.15,3.15,0,0,0-.32,2.47Z"/><path class="cls-3" d="M185.27,76.28c.07-3-1.85-5.3-4-7.11a3.21,3.21,0,0,0-5.36,3.12c.19.62.39,1.23.62,1.84q.15.42.33.84l.42,1c.14.32.14.31,0,0a2.27,2.27,0,0,1,.2.72,4.37,4.37,0,0,0,.47,1.4A4,4,0,0,0,180.3,80c2.23.61,4-1,5.08-2.82a3.34,3.34,0,0,0,.4-.83,2,2,0,0,1-1.57,1.1l.62-.08a3.45,3.45,0,0,0,2.65-2.06c.92-2.18-.62-3.9-1.91-5.48-.38-.47-.77-.92-1.15-1.38s.26.37-.14-.18l-.6-.84c-1.51-2.16-2.93-4.38-4.39-6.56a3.21,3.21,0,0,0-5.54,3.23c1.32,2,2.62,4,3.95,5.92.74,1.09,1.51,2.14,2.35,3.16.32.4.65.79,1,1.18.45.54-.25-.36.15.2l.33.46c.24.37.23.29,0-.24v-1.7l0,.15.83-1.42a1.78,1.78,0,0,1,1.26-.68c.37,0,.3,0-.2,0a5.59,5.59,0,0,0-.8.14A3.86,3.86,0,0,0,180.34,73c-.17.28-.28.59-.43.88-.08.14-.19.44-.33.53l.19-.25c-.55.57-.09.44,1.39-.42l1.61.44a1.71,1.71,0,0,1,.64.79c.27.54.35.62.24.25a2.06,2.06,0,0,0-.11-.56c-.06-.22-.14-.42-.22-.63.17.45-.78-1.72-.31-.72a19.51,19.51,0,0,1-.95-2.69L176.7,73.7q.54.43,1.05.9c.22.2.88.67.94,1l-.21-.26a2.9,2.9,0,0,1,.19.29,1.92,1.92,0,0,1,.27.51c-.14-.89-.18,0,0,.1l0-.4a3.53,3.53,0,0,1,0,.46,3.21,3.21,0,1,0,6.41,0Z"/><path class="cls-3" d="M180.11,67.17a3.06,3.06,0,0,0-.86-1,4.84,4.84,0,0,0-1.15-.6,3.19,3.19,0,0,0-2.47.33,3.27,3.27,0,0,0-1.47,1.91,3.73,3.73,0,0,0,.43,3,3.72,3.72,0,0,0,1.92,1.47,3.4,3.4,0,0,0,2.09-.16,3.11,3.11,0,0,0,1.53-1.31,3.2,3.2,0,0,0,.32-2.47,16.1,16.1,0,0,0-2.4-4,26.06,26.06,0,0,0-1.67-2.1c-.42-.47-.93-.84-1.32-1.34l.5.65a2,2,0,0,1-.21-.35,3.2,3.2,0,0,0-5.86.77,3.54,3.54,0,0,0,.32,2.47,7.2,7.2,0,0,0,1.6,1.88,11.83,11.83,0,0,1,1.28,1.47l-.5-.65c.44.57.86,1.15,1.26,1.75a13.64,13.64,0,0,1,1.07,1.77l-.33-.77a1.67,1.67,0,0,1,.08.2l5.86-2.47a.71.71,0,0,1-.1-.14l.33.76a.49.49,0,0,1-.05-.16l.12.85a.48.48,0,0,1,0-.17l-.11.85,0-.08-3.94,2.23.06,0-1.92-1.47,0,.06a3.34,3.34,0,0,0,1.92,1.47,3.21,3.21,0,0,0,3.94-2.24,3.33,3.33,0,0,0-.33-2.47Z"/><path class="cls-3" d="M174.61,61c-1-1.58-2.07-3.13-3.24-4.61a25.13,25.13,0,0,0-3.52-3.55,3.66,3.66,0,0,0-1.41-.83,3.2,3.2,0,0,0-2.09.17,3.24,3.24,0,0,0-2,2.92,7.31,7.31,0,0,0,.92,3.19,7.8,7.8,0,0,0,1.59,1.89c.49.43,1,.86,1.48,1.27a9,9,0,0,0,2.82,1.65,3.21,3.21,0,0,0,3.62-4.71,3.57,3.57,0,0,0-1.92-1.47l-.23-.09.76.32a5.07,5.07,0,0,1-1.06-.66l.64.5a15.23,15.23,0,0,1-2.38-2.16l.5.65a3.88,3.88,0,0,1-.51-.88l.32.77a5.48,5.48,0,0,1-.23-.86l.12.85,0-.26-5.47,2.27A25.6,25.6,0,0,1,167,61.05l-.51-.65c.94,1.22,1.78,2.51,2.62,3.8A3.34,3.34,0,0,0,171,65.67a3.22,3.22,0,0,0,3.95-2.23,3.27,3.27,0,0,0-.33-2.47Z"/><path class="cls-3" d="M175.76,57.83a1,1,0,0,1,.44.39c.14.19.15.22.06.08s-.27-.39-.4-.58L175,56.49a16.54,16.54,0,0,0-2-2.64A17.81,17.81,0,0,0,170.47,52c-.39-.27-.77-.56-1.16-.84s.58.46-.14-.11l-.56-.45c-1.58-1.25-3.2-2.38-4.87-3.49-.49-.32.15.18-.08-.06s-.31-.28-.46-.43-.58-.59-.88-.89a9.15,9.15,0,0,0-2.41-1.83,3.21,3.21,0,0,0-3.23,5.54c.18.09.35.21.54.29s-.39-.38,0,0,.6.57.89.87a16.24,16.24,0,0,0,2.36,2c.71.5,1.46.92,2.16,1.42l.59.43c.47.34-.13-.11.15.11l1.13.89c.85.67,1.7,1.35,2.59,2a13.18,13.18,0,0,0,1.18.76c.5.26-.11-.19.11,0s.54.56.1,0c1.38,1.68,2.19,3.76,4,5a3.23,3.23,0,0,0,4.39-1.15,3.3,3.3,0,0,0-1.15-4.38Z"/><path class="cls-3" d="M166.9,52.78a23.24,23.24,0,0,0-3.5-3.58,3,3,0,0,0-1.62-.44,3.19,3.19,0,0,0-1.94.69,3.24,3.24,0,0,0-1.15,3.36,8.54,8.54,0,0,0,.92,2.2L164,50.63l-.14-.11.64.5c-.6-.47-1.13-1-1.73-1.5a23.25,23.25,0,0,0-2.42-1.68A40.31,40.31,0,0,0,156,45.52a3.48,3.48,0,0,0-2.47-.33,3.23,3.23,0,0,0-2.24,4,3.1,3.1,0,0,0,1.48,1.91,31.68,31.68,0,0,1,6.12,3.5l-.65-.5c.87.68,1.64,1.45,2.52,2.11a2.9,2.9,0,0,0,2.05.38,3,3,0,0,0,1.84-.88,3.3,3.3,0,0,0,.5-3.88c-.12-.2-.23-.4-.33-.61l.33.76a5,5,0,0,1-.28-.82l-4.7,3.62.13.1-.64-.5a27.38,27.38,0,0,1,2.71,3,3.22,3.22,0,0,0,4.53,0,3.27,3.27,0,0,0,0-4.53Z"/><path class="cls-3" d="M156.54,42.54a11.74,11.74,0,0,1-4.76-2.76l-2.26,5.47c-.08,0,.53.21.64.26L153.39,40a117.44,117.44,0,0,0-13.24-5.35c-2.14-.64-4.31-1.17-6.48-1.69a8.1,8.1,0,0,0-4.33-.3,4.5,4.5,0,0,0-3,2.89c-1.6,5.22,6.36,7.65,9.92,8.93a86.64,86.64,0,0,1,12.32,5,3.21,3.21,0,0,0,3.89-5c-1.67-2-4.52-3-6.75-4.25a74.23,74.23,0,0,0-7.64-4A41,41,0,0,0,129.78,34a46.83,46.83,0,0,1-8.46-2.79l-.86,6.29a31.79,31.79,0,0,1,3.78.18c1.72.17,3.2-1.61,3.2-3.21a3.27,3.27,0,0,0-3.2-3.2,34,34,0,0,0-3.78-.18,3.2,3.2,0,0,0-3.14,2.78,3.26,3.26,0,0,0,2.29,3.52,49.09,49.09,0,0,0,7.8,2.65c2.69.59,5.43.87,8,1.92a55,55,0,0,1,6.52,3.46c1.13.65,2.26,1.29,3.42,1.88A7.37,7.37,0,0,1,147.94,49l3.89-5a71.77,71.77,0,0,0-10.91-4.64c-1.68-.57-3.38-1.12-5-1.8-.7-.29-1.39-.61-2.06-1a9.88,9.88,0,0,1-1.35-.75c-.37-.28,0,.3-.31-.34l.44,1.62q-3.42,1.51-1.81,1.78l.69.16,1.4.33,2.55.64c1.77.46,3.54,1,5.27,1.57,3.22,1.12,6.32,2.59,9.44,4a3.29,3.29,0,0,0,4.38-1.15A3.23,3.23,0,0,0,153.39,40a10.36,10.36,0,0,0-3.87-1.14c-2.83-.32-4.15,3.68-2.27,5.47a18.53,18.53,0,0,0,7.59,4.41c4,1.18,5.65-5,1.7-6.18Z"/><path class="cls-3" d="M126.58,37.9c4.12,0,4.13-6.41,0-6.41s-4.13,6.41,0,6.41Z"/><path class="cls-3" d="M130.69,36.21a28.61,28.61,0,0,0-7.14-.87c-2.43-.12-4.83-.48-7.25-.66a66.5,66.5,0,0,0-7.2.16c-2.36.06-4.51-.1-6.7,1-2,1-2.16,4.55,0,5.54A7.26,7.26,0,0,0,107,42,3.24,3.24,0,0,0,109.23,38a3.3,3.3,0,0,0-4-2.24.45.45,0,0,1,.36.06v5.54a1.69,1.69,0,0,1,.6-.15,11.81,11.81,0,0,1,1.19,0c1,0,2.06,0,3.09-.06a38.49,38.49,0,0,1,6.26-.05c2.11.19,4.2.49,6.31.61a23.76,23.76,0,0,1,5.89.66c4,1.22,5.64-5,1.71-6.18Z"/><path class="cls-3" d="M116.9,31.11c-.13,0-1.26.28-.84.23-.4.05-.81.06-1.22.07l-2.86.11-5.37.2a19.59,19.59,0,0,0-3,.31c-.42.07-.84.17-1.25.28s.14,0-.53.08c-2,.15-4.32,0-5.82,1.63a3.2,3.2,0,0,0,4.53,4.53c-.93.41-1.13.53-.6.37h.1l1.07-.06a20.85,20.85,0,0,0,3-.36l.94-.22c.36-.06.42-.08.19-.05l.37,0c.88-.06,1.76-.08,2.64-.12l5-.18a21,21,0,0,0,5.48-.6,3.21,3.21,0,0,0-1.71-6.18Z"/><path class="cls-3" d="M90.54,36a.77.77,0,0,1-.18.18l.65-.5-.24.12.76-.33a7.13,7.13,0,0,1-1.3.26l.85-.12c-.69.09-1.39.15-2.09.24a9.29,9.29,0,0,0-1.65.26,12.19,12.19,0,0,0-1.6.65l.77-.32c-.72.28-1.47.5-2.18.8a5.15,5.15,0,0,0-1.58,1c-.24.2-.44.44-.68.64l.65-.5a2.73,2.73,0,0,1-.53.29l.77-.32c-.24.09-.49.16-.73.23a3.2,3.2,0,1,0,1.7,6.18A7.65,7.65,0,0,0,85.77,44a13.18,13.18,0,0,0,1.51-1.27l-.65.5a3.65,3.65,0,0,1,.55-.3l-.77.33c1-.38,1.94-.7,2.9-1.11l-.77.32a4.16,4.16,0,0,1,1-.29l-.85.11c1.07-.14,2.15-.23,3.22-.38a4.84,4.84,0,0,0,3.14-1.38A3.43,3.43,0,0,0,96,38.21,3.29,3.29,0,0,0,95.08,36c-1.2-1.1-3.38-1.37-4.54,0Z"/><path class="cls-3" d="M93.63,38.91c-1.83.27-3.59.89-5.42,1.14l.85-.11a15,15,0,0,0-4.31.72A6.87,6.87,0,0,0,82.67,42a4.1,4.1,0,0,0-1,1.73,7.38,7.38,0,0,0-.19,1.55l.12-.85a3.17,3.17,0,0,1-.18.62l.32-.76a1.56,1.56,0,0,1-.16.28,3.23,3.23,0,0,0,3.62,4.71c.8-.18,1.58-.4,2.35-.65a3.2,3.2,0,1,0-1.7-6.18c-.77.25-1.56.47-2.35.65l3.62,4.71a6.28,6.28,0,0,0,.8-3l-.11.85,0-.18-.33.77a.65.65,0,0,1,.17-.26l-.5.65a1.51,1.51,0,0,1,.23-.21l-.65.5a5.77,5.77,0,0,1,.87-.5l-.77.32a4.17,4.17,0,0,1,1-.28l-.85.11c.64-.08,1.29-.08,1.94-.15a20.78,20.78,0,0,0,2.6-.45c1.25-.3,2.48-.63,3.76-.82a3.2,3.2,0,0,0,1.92-1.48,3.21,3.21,0,0,0-1.15-4.38,3.7,3.7,0,0,0-2.47-.32Z"/><path class="cls-3" d="M79.66,40c-.06,0-.72.41-.37.24s-.43.16-.42.15c-.62.24-1.23.5-1.82.78-1,.46-1.94.94-2.9,1.42s-2,.93-3,1.45a9.49,9.49,0,0,0-1.44,1c-.16.13-.32.29-.5.41.35-.23.19-.16-.09,0a5.46,5.46,0,0,0-2.58,2.26c-.16.31-.15.18.07,0,.49-.36,0,0-.13.08A13.64,13.64,0,0,0,65.08,49c-.62.56-1.16,1.18-1.74,1.77a11.13,11.13,0,0,1-.94.88c.21-.17.32-.22,0-.06s-.45.25-.68.36a3.21,3.21,0,0,0-1.15,4.38A3.28,3.28,0,0,0,65,57.46,15.18,15.18,0,0,0,69.14,54l.47-.45c.23-.21.4-.34,0-.08a12.23,12.23,0,0,0,1.53-1.15,7.57,7.57,0,0,0,.66-.86c.08-.12.14-.23.21-.35s.08-.16,0,0-.61.36-.16.2a5.52,5.52,0,0,0,.55-.26,7.87,7.87,0,0,0,1.39-1c.07-.06.64-.45.28-.24s.36-.18.35-.18c.92-.49,1.87-.92,2.8-1.37s1.93-1,2.9-1.42c.07,0,.79-.35.52-.24l.46-.17a8.36,8.36,0,0,0,1.79-.84A3.2,3.2,0,1,0,79.66,40Z"/><ellipse class="cls-4" cx="117.25" cy="112.45" rx="71.78" ry="70.5" transform="translate(0.19 225.1) rotate(-87.71)"/><circle class="cls-5" cx="115.91" cy="113.68" r="82.04"/><line class="cls-2" x1="177.07" y1="150.32" x2="57.17" y2="74.53"/><line class="cls-2" x1="188.89" y1="115.2" x2="47.71" y2="114.55"/><circle class="cls-6" cx="117.86" cy="113.12" r="13.46"/><rect class="cls-7" x="40.42" y="115.84" width="19.35" height="90.1" transform="translate(-76.3 49.45) rotate(-31.3)"/><path class="cls-7" d="M24.8,93.22l10.59,17.42L12.24,124.71,1.65,107.3A22.66,22.66,0,1,0,24.8,93.22Z"/><path class="cls-7" d="M98.82,215,88.23,197.54,65.09,211.61,75.68,229A22.66,22.66,0,1,1,98.82,215Z"/><path class="cls-8" d="M241.74,95.73v53.6s53.6,1,52.61-27.79S241.74,95.73,241.74,95.73Z"/><rect class="cls-9" x="240.25" y="94.32" width="5.96" height="56.58"/></g></g></svg>