<svg xmlns="http://www.w3.org/2000/svg" viewBox="0 0 191.37 191.37"><defs><style>.cls-1{fill:#fff;stroke:#1d1d1b;}.cls-1,.cls-2,.cls-3,.cls-4{stroke-miterlimit:10;}.cls-2,.cls-3,.cls-4{fill:none;stroke:#fff;}.cls-2{stroke-width:2.02px;}.cls-3{stroke-width:0.37px;}.cls-4{stroke-width:2.02px;}</style></defs><title>essentials</title><g id="Laag_2" data-name="Laag 2"><g id="Laag_1-2" data-name="Laag 1"><path class="cls-1" d="M131.89,118.83,68.49,62.42a20.27,20.27,0,0,0-24.74-27l8.46,7.52L38.72,58.07l-8.8-7.83A20.28,20.28,0,0,0,59.49,72.53l63.41,56.41a20.28,20.28,0,0,0,25.58,26.78l-8.8-7.82,13.49-15.17,8.46,7.52a20.27,20.27,0,0,0-29.74-21.42Z"/><path class="cls-1" d="M131.89,72.54,68.49,129A20.27,20.27,0,0,1,43.75,156l8.46-7.53L38.72,133.3l-8.8,7.83a20.28,20.28,0,0,1,29.57-22.29L122.9,62.43a20.28,20.28,0,0,1,25.58-26.78l-8.8,7.83,13.49,15.16,8.46-7.52a20.27,20.27,0,0,1-29.74,21.42Z"/><circle class="cls-2" cx="95.69" cy="95.69" r="94.67"/><line class="cls-3" x1="17.64" y1="70.09" x2="173.73" y2="119.37"/><line class="cls-3" x1="39.22" y1="35.05" x2="154.96" y2="150.79"/><line class="cls-3" x1="177.56" y1="85.75" x2="15.16" y2="106.28"/><line class="cls-3" x1="136.09" y1="23.52" x2="60.32" y2="168.61"/><line class="cls-3" x1="66.26" y1="20.28" x2="128.56" y2="171.64"/><line class="cls-3" x1="172.25" y1="63.71" x2="23.56" y2="132.15"/><ellipse class="cls-4" cx="97.42" cy="95.22" rx="81.36" ry="82.84"/><line class="cls-3" x1="168.3" y1="135.44" x2="26.54" y2="53.6"/><line class="cls-3" x1="179.68" y1="94.62" x2="16.86" y2="100.38"/><circle class="cls-2" cx="97.68" cy="95.49" r="15.53"/><line class="cls-3" x1="102.51" y1="13.28" x2="94.03" y2="176.74"/></g></g></svg>