<svg xmlns="http://www.w3.org/2000/svg" viewBox="0 0 226.2 273.42"><defs><style>.cls-1{fill:#1d1d1b;stroke:#1d1d1b;stroke-miterlimit:10;}.cls-2{font-size:147px;font-family:Avenir-Black, Avenir;font-weight:800;}.cls-2,.cls-3{fill:#e31013;}</style></defs><title>rental_black</title><g id="Laag_2" data-name="Laag 2"><g id="Laag_1-2" data-name="Laag 1"><path class="cls-1" d="M220.21,155.14c0-53.78-43.73-99-96.19-106.34L166.19.5c-8.32,0-18.33,8.59-26.65,8.59C128.61,9.09,119.37.5,108.44.5,98.64.5,88.84,6.57,79,6.57,68,6.57,56.87.5,45.79.5L88.74,49.69A106.55,106.55,0,0,0,2.56,154.26c0,23.9-7.42,72.35,5.88,90.12,19.43,26,65.72,16.39,100.63,16.39,35.86,0,91.84,9.93,111.14-17.23C232.57,226.15,220.21,178.11,220.21,155.14Z"/><text class="cls-2" transform="translate(95.9 206.24)">$</text><rect class="cls-3" x="40.76" y="144.03" width="43.07" height="11.34"/></g></g></svg>