<svg xmlns="http://www.w3.org/2000/svg" viewBox="0 0 162.63 39.93"><defs><style>.cls-1{fill:#e30613;}</style></defs><title>rules</title><g id="Laag_2" data-name="Laag 2"><g id="Laag_1-2" data-name="Laag 1"><polygon class="cls-1" points="38.01 8.93 31 1.92 19.01 13.91 7.01 1.92 0 8.93 11.99 20.92 0 32.91 7.01 39.93 19.01 27.94 31 39.93 38.01 32.91 26.02 20.92 38.01 8.93"/><polygon class="cls-1" points="100.32 8.93 93.31 1.92 81.32 13.91 69.33 1.92 62.31 8.93 74.3 20.92 62.31 32.91 69.33 39.93 81.32 27.94 93.31 39.93 100.32 32.91 88.33 20.92 100.32 8.93"/><polygon class="cls-1" points="162.63 7.01 155.62 0 143.63 11.99 131.63 0 124.62 7.01 136.61 19.01 124.62 31 131.63 38.01 143.63 26.02 155.62 38.01 162.63 31 150.64 19.01 162.63 7.01"/></g></g></svg>