<svg xmlns="http://www.w3.org/2000/svg" viewBox="0 0 409.35 264"><defs><style>.cls-1,.cls-10,.cls-11,.cls-13,.cls-14,.cls-5,.cls-9{fill:none;}.cls-1{stroke:#e30b17;stroke-width:6.75px;}.cls-1,.cls-10,.cls-11,.cls-13,.cls-14,.cls-3,.cls-5,.cls-8,.cls-9{stroke-miterlimit:10;}.cls-2{fill:#e30b17;}.cls-3{fill:#878787;stroke:#1d1d1b;}.cls-3,.cls-5{stroke-width:1.9px;}.cls-4{fill:#a6a6a5;}.cls-5{stroke:#f8e92a;}.cls-6,.cls-8{fill:#fff;}.cls-7{fill:#ae6623;}.cls-10,.cls-11,.cls-13,.cls-14,.cls-8,.cls-9{stroke:#fff;}.cls-8{stroke-width:1.05px;}.cls-9{stroke-width:2.33px;}.cls-10{stroke-width:2.71px;}.cls-11{stroke-width:3.47px;}.cls-12{fill:#e30613;}.cls-13{stroke-width:3.06px;}.cls-14{stroke-width:5px;}</style></defs><title>Middel 3</title><g id="Laag_2" data-name="Laag 2"><g id="Laag_1-2" data-name="Laag 1"><path class="cls-1" d="M157.75,211.29a77.8,77.8,0,1,1-27.51-101.74"/><polygon class="cls-2" points="154.18 139.71 104.38 121.77 144.82 87.6 154.18 139.71"/><path class="cls-1" d="M406.36,218.76A77.81,77.81,0,1,1,378.84,117"/><polygon class="cls-2" points="402.79 147.19 352.98 129.24 393.42 95.08 402.79 147.19"/><path class="cls-3" d="M63.64,41.18V75.37S97.82,76,97.19,57.64,63.64,41.18,63.64,41.18Z"/><rect class="cls-4" x="62.69" y="41.05" width="3.8" height="36.09"/><line class="cls-5" x1="51.73" y1="46.25" x2="4.25" y2="23.93"/><line class="cls-5" x1="49.39" y1="59.1" x2="0.01" y2="58.62"/><line class="cls-5" x1="3.54" y1="93.97" x2="51.02" y2="71.65"/><rect class="cls-6" x="109.38" y="4.04" width="63.4" height="6.15"/><rect class="cls-7" x="148.89" width="25.25" height="14.24" rx="7.12"/><path class="cls-8" d="M83.76,169.27c0-8,14.31,3.84,13.61,0s-7.33-90,5.93-93.5,14.3-63.15,14.3-63.15-7.67-10.12-7.67-.35,1,49.19-14,59.66S83.76,169.27,83.76,169.27Z"/><path class="cls-9" d="M113.19,54.59l107.34,1.09-1.22,120.76L106.93,67.72Z"/><path class="cls-10" d="M254.53,175.77a34,34,0,1,1-20.76-31.32A34,34,0,0,1,254.53,175.77Z"/><polygon class="cls-11" points="222.15 54.39 220.92 175.15 343.3 175.65 295.1 127.41 279.74 112.03 222.15 54.39"/><rect class="cls-12" x="390.51" y="89.62" width="2.39" height="17.57"/><path class="cls-13" d="M266.43,98.81c1.31-12.59,104.71-7.87,122.42-7.68l.32,25.37"/><line class="cls-14" x1="220.92" y1="55.68" x2="220.92" y2="35.09"/><ellipse class="cls-7" cx="215.51" cy="35.09" rx="32.08" ry="8.94"/></g></g></svg>