<svg xmlns="http://www.w3.org/2000/svg" viewBox="0 0 216.75 135.64"><defs><style>.cls-1,.cls-11,.cls-12,.cls-13,.cls-15,.cls-2,.cls-4,.cls-5,.cls-8{fill:none;}.cls-1,.cls-10,.cls-11,.cls-12,.cls-13,.cls-15,.cls-2,.cls-4,.cls-5,.cls-6{stroke:#fff;}.cls-1,.cls-10,.cls-11,.cls-12,.cls-13,.cls-15,.cls-2,.cls-4,.cls-5,.cls-6,.cls-8{stroke-miterlimit:10;}.cls-1{stroke-width:0.9px;}.cls-2{stroke-width:0.16px;}.cls-3{fill:#502d07;}.cls-4{stroke-width:0.9px;}.cls-5{stroke-width:0.67px;}.cls-10,.cls-6,.cls-9{fill:#fff;}.cls-6,.cls-8{stroke-width:0.97px;}.cls-7{fill:#a6a6a5;}.cls-8{stroke:#f8e92a;}.cls-10{stroke-width:0.54px;}.cls-11{stroke-width:1.19px;}.cls-12{stroke-width:1.39px;}.cls-13{stroke-width:1.78px;}.cls-14,.cls-16{fill:#e30613;}.cls-15{stroke-width:1.56px;}.cls-16{font-size:31.91px;font-family:Avenir-Black, Avenir;font-weight:800;}</style></defs><title>Middel 3</title><g id="Laag_2" data-name="Laag 2"><g id="Laag_1-2" data-name="Laag 1"><circle class="cls-1" cx="174.33" cy="93.1" r="41.97"/><line class="cls-2" x1="9.56" y1="81.63" x2="78.77" y2="103.48"/><line class="cls-2" x1="19.13" y1="66.1" x2="70.44" y2="117.41"/><line class="cls-2" x1="47.04" y1="56.35" x2="43.28" y2="128.82"/><line class="cls-2" x1="71.98" y1="68.68" x2="18.31" y2="117.53"/><line class="cls-2" x1="80.46" y1="88.58" x2="8.46" y2="97.68"/><line class="cls-2" x1="62.08" y1="60.98" x2="28.48" y2="125.31"/><line class="cls-2" x1="32.89" y1="60.18" x2="60.51" y2="127.29"/><line class="cls-2" x1="78.11" y1="78.8" x2="12.19" y2="109.15"/><path class="cls-3" d="M47.9,54.27a1.64,1.64,0,0,0,0-3.28,1.64,1.64,0,0,0,0,3.28Z"/><ellipse class="cls-4" cx="44.72" cy="92.57" rx="36.07" ry="36.73"/><circle class="cls-1" cx="44.07" cy="93.22" r="41.97"/><line class="cls-2" x1="76.08" y1="110.7" x2="13.23" y2="74.41"/><line class="cls-2" x1="81.4" y1="92.51" x2="9.22" y2="95.06"/><circle class="cls-5" cx="45.05" cy="92.89" r="6.89"/><path class="cls-6" d="M32.56,25.65V43.14s17.49.32,17.17-9.07S32.56,25.65,32.56,25.65Z"/><rect class="cls-7" x="32.07" y="25.58" width="1.94" height="18.46"/><line class="cls-8" x1="26.47" y1="28.24" x2="2.17" y2="16.82"/><line class="cls-8" x1="25.27" y1="34.81" y2="34.57"/><line class="cls-8" x1="1.81" y1="52.65" x2="26.1" y2="41.23"/><rect class="cls-9" x="54.66" y="5.24" width="32.44" height="3.15"/><rect class="cls-3" x="74.87" y="3.17" width="12.92" height="7.28" rx="2.53"/><path class="cls-10" d="M41.55,89.78c0-4.11,7.32,2,7,0s-3.75-46.06,3-47.84S58.87,9.63,58.87,9.63s-3.93-5.18-3.93-.18S55.47,34.62,47.8,40,41.55,89.78,41.55,89.78Z"/><line class="cls-2" x1="139.73" y1="81.75" x2="208.93" y2="103.6"/><line class="cls-2" x1="149.3" y1="66.22" x2="200.61" y2="117.53"/><line class="cls-2" x1="210.63" y1="88.7" x2="138.63" y2="97.8"/><line class="cls-2" x1="192.24" y1="61.11" x2="158.65" y2="125.43"/><line class="cls-2" x1="161.29" y1="59.67" x2="188.91" y2="126.78"/><line class="cls-2" x1="208.28" y1="78.93" x2="142.36" y2="109.27"/><ellipse class="cls-4" cx="175.1" cy="92.89" rx="36.07" ry="36.73"/><line class="cls-2" x1="206.53" y1="110.73" x2="143.68" y2="74.44"/><line class="cls-2" x1="211.57" y1="92.63" x2="139.39" y2="95.18"/><circle class="cls-1" cx="175.22" cy="93.02" r="6.89"/><path class="cls-11" d="M57.06,30.88l54.92.56-.63,61.78L53.85,37.6Z"/><path class="cls-12" d="M128.92,93.1a17.38,17.38,0,1,1-10.62-16A17.39,17.39,0,0,1,128.92,93.1Z"/><polygon class="cls-13" points="113.12 31.03 112.49 92.82 175.1 93.07 150.44 68.39 142.58 60.52 113.12 31.03"/><rect class="cls-14" x="198.49" y="49.03" width="1.22" height="8.99"/><path class="cls-15" d="M135,50.32c.66-6.43,53.57-4,62.63-3.92l.16,13"/><text class="cls-16" transform="translate(103.05 27.25)">?</text><line class="cls-2" x1="177.36" y1="56.57" x2="173.6" y2="129.04"/></g></g></svg>